<?xml version="1.0" standalone="no"?>
<!DOCTYPE svg PUBLIC "-//W3C//DTD SVG 20010904//EN"
 "http://www.w3.org/TR/2001/REC-SVG-20010904/DTD/svg10.dtd">
<svg version="1.0" xmlns="http://www.w3.org/2000/svg"
 width="1280.000000pt" height="1280.000000pt" viewBox="0 0 1280.000000 1280.000000"
 preserveAspectRatio="xMidYMid meet">
<metadata>
Created by potrace 1.15, written by Peter Selinger 2001-2017
</metadata>
<g transform="translate(0.000000,1280.000000) scale(0.100000,-0.100000)"
fill="#000000" stroke="none">
<path d="M10960 10745 c-377 -156 -692 -288 -700 -293 -9 -6 -22 -48 -34 -113
-57 -323 -189 -728 -334 -1029 -157 -324 -312 -552 -653 -960 -542 -649 -1066
-1166 -1685 -1662 -220 -176 -287 -224 -386 -277 -223 -121 -410 -145 -591
-77 -163 61 -265 131 -582 401 -146 124 -270 223 -275 220 -16 -10 -19 65 -35
890 l-16 810 -175 430 c-152 374 -196 470 -337 740 l-162 310 -70 24 c-88 30
-180 33 -219 8 -15 -10 -51 -55 -80 -100 -69 -106 -86 -121 -126 -112 -24 5
-30 11 -25 23 4 10 14 44 23 78 13 52 14 69 3 117 -17 76 -72 158 -167 246
-218 203 -462 313 -622 281 -63 -13 -161 -61 -235 -115 -37 -28 -46 -40 -42
-58 18 -81 75 -531 68 -536 -5 -3 -69 -48 -142 -100 l-133 -94 6 -81 c4 -45 9
-103 11 -131 l5 -50 -353 -272 -352 -273 -5 101 c-4 74 -9 102 -20 109 -9 6
-226 10 -535 10 -455 0 -523 -2 -543 -16 l-22 -15 0 -499 c0 -440 2 -500 16
-514 14 -14 77 -16 548 -16 400 0 535 3 544 12 9 9 12 98 12 338 l1 325 276
240 c152 132 312 271 355 309 43 38 80 67 82 65 6 -7 38 -407 33 -416 -2 -4
-80 -131 -172 -282 l-168 -273 7 -207 c36 -1123 123 -1430 558 -1983 57 -72
110 -140 119 -152 17 -23 92 -302 85 -315 -3 -4 -87 -55 -186 -112 -235 -134
-244 -149 -169 -288 226 -416 819 -986 1779 -1712 533 -404 1005 -630 1495
-716 157 -28 546 -25 720 5 169 29 377 80 594 144 136 40 183 59 210 82 37 32
1963 1837 2393 2244 219 206 248 230 253 210 2 -13 142 -1022 310 -2243 168
-1220 307 -2220 308 -2221 1 -1 224 0 495 3 420 5 492 8 492 21 0 8 -169 2211
-375 4896 -206 2684 -375 4887 -375 4894 0 6 -3 11 -7 11 -5 -1 -316 -129
-693 -284z m-8520 -1742 l-1 -98 -200 -155 c-110 -85 -203 -154 -207 -153 -4
1 -81 45 -172 98 -91 53 -156 86 -144 73 44 -50 298 -334 314 -351 16 -17 26
-10 202 141 102 88 191 163 197 166 8 5 11 -60 11 -234 l0 -240 -457 2 -458 3
-3 423 -2 422 460 0 460 0 0 -97z"/>
<path d="M1425 7576 c-14 -20 -15 -85 -13 -523 2 -406 6 -503 17 -516 12 -15
62 -17 536 -17 493 0 523 1 538 18 15 17 17 67 17 518 0 436 -2 502 -16 522
l-15 22 -524 0 -525 0 -15 -24z m985 -516 l0 -440 -445 0 -445 0 0 440 0 440
445 0 445 0 0 -440z"/>
<path d="M1442 6118 c-9 -9 -12 -140 -12 -529 0 -469 2 -518 17 -530 13 -12
107 -13 542 -11 516 4 526 4 544 24 16 20 17 54 15 523 -2 408 -6 505 -17 518
-12 15 -63 17 -545 17 -400 0 -535 -3 -544 -12z m998 -528 l0 -440 -455 0
-455 0 0 440 0 440 455 0 455 0 0 -440z"/>
<path d="M1458 4723 c-9 -2 -19 -12 -23 -21 -3 -9 -6 -250 -5 -536 0 -445 3
-524 15 -543 l15 -23 511 0 510 0 26 26 c21 21 24 31 19 62 -3 20 -6 256 -6
524 0 429 -2 488 -16 502 -14 14 -74 16 -522 15 -279 -1 -514 -3 -524 -6z
m955 -245 c4 -83 7 -289 7 -458 l0 -307 -292 -6 c-161 -4 -359 -7 -439 -7
l-146 0 -6 167 c-4 91 -7 298 -7 459 l0 293 158 4 c86 1 283 4 438 5 l281 2 6
-152z"/>
<path d="M2199 3266 c-2 -2 -175 -6 -384 -9 -378 -7 -380 -7 -398 -29 -16 -18
-18 -33 -13 -83 3 -33 8 -271 12 -529 l7 -470 24 -24 c22 -22 30 -23 91 -18
37 3 267 8 511 12 425 6 444 7 464 27 18 18 19 28 13 166 -3 80 -8 319 -12
531 -5 308 -9 390 -20 408 -14 21 -20 22 -153 22 -76 0 -140 -2 -142 -4z m205
-168 c3 -35 8 -244 12 -464 l6 -402 -104 -6 c-56 -3 -257 -8 -444 -11 l-342
-6 -6 153 c-3 84 -8 296 -12 470 l-6 318 209 3 c114 1 315 3 445 5 l236 2 6
-62z"/>
</g>
</svg>
