<?xml version="1.0" encoding="UTF-8"?> <svg xmlns="http://www.w3.org/2000/svg" xmlns:xlink="http://www.w3.org/1999/xlink" viewBox="0 0 397.95 332.41"><defs><style>.cls-1{fill:none;}.cls-2{fill:#ebeeff;}.cls-3{isolation:isolate;}.cls-4{fill:#ffdc3a;}.cls-5{fill:#ff9d26;}.cls-6{fill:#b8dffb;}.cls-7{fill:#ffbb34;}.cls-8{fill:#fff;}.cls-9{fill:#6e70e2;}.cls-10{fill:#4f50e3;}.cls-11{fill:#9d9bf6;}.cls-12{fill:#4949d1;}.cls-13{fill:#4040cc;}.cls-14{fill:#3838b8;}.cls-15{fill:#ff2f80;}.cls-16{fill:#ff1c6e;}.cls-17{fill:#ea2465;}.cls-18{fill:#d7205b;}.cls-19{fill:#ff5093;}.cls-20{fill:#0055c1;}.cls-21{fill:#004087;}.cls-22{fill:#001234;}.cls-23{fill:#8684f7;}.cls-24{fill:#6ad3ff;}.cls-25{fill:#dadaff;}.cls-26{clip-path:url(#clip-path);}.cls-27{clip-path:url(#clip-path-2);}.cls-28{fill:#ececff;}.cls-29{clip-path:url(#clip-path-3);}.cls-30{clip-path:url(#clip-path-4);}.cls-31{clip-path:url(#clip-path-5);}.cls-32{clip-path:url(#clip-path-6);}.cls-33{fill:#e1f0f7;}.cls-33,.cls-34,.cls-35,.cls-37,.cls-42,.cls-43{opacity:0.61;}.cls-35{fill:url(#Degradado_sin_nombre_3);}.cls-36{mix-blend-mode:multiply;}.cls-37{fill:url(#Degradado_sin_nombre_3-2);}.cls-38{clip-path:url(#clip-path-7);}.cls-39{clip-path:url(#clip-path-8);}.cls-40{clip-path:url(#clip-path-9);}.cls-41{clip-path:url(#clip-path-10);}.cls-42{fill:url(#Degradado_sin_nombre_3-3);}.cls-43{fill:url(#Degradado_sin_nombre_3-4);}.cls-44{clip-path:url(#clip-path-11);}.cls-45{clip-path:url(#clip-path-12);}.cls-46{fill:#162a63;}.cls-47{fill:#4d67da;}.cls-48{fill:#fec721;}.cls-49{clip-path:url(#clip-path-13);}.cls-50{clip-path:url(#clip-path-14);}.cls-51{fill:#fe4d4f;}.cls-52{fill:#4d6dfe;}.cls-53{fill:#2c4095;}.cls-54{fill:#3954c3;}.cls-55{fill:#ff66a0;}.cls-56{fill:#ffbfa8;}.cls-57{fill:#ffdd2d;}.cls-58{fill:#ffc518;}.cls-59{fill:gold;}.cls-60{fill:#ffbb20;}</style><clipPath id="clip-path"><polygon class="cls-1" points="191.85 80.26 191.87 73.77 210.4 84.46 210.38 90.96 191.85 80.26"></polygon></clipPath><clipPath id="clip-path-2"><path class="cls-1" d="M223.88,70.3c-2.11-1.22-3.82-.25-3.82,2.18l-.05,17,0,16.69a8.36,8.36,0,0,0,3.8,6.58l29.36,16.95c2.1,1.21,3.82.24,3.82-2.18l.05-16.86L257,93.83a8.39,8.39,0,0,0-3.8-6.59l-14.68-8.47Z"></path></clipPath><clipPath id="clip-path-3"><path class="cls-1" d="M227.53,104v-.62a.39.39,0,0,0,.23.31,1.17,1.17,0,0,0,.59.14v.63a1.08,1.08,0,0,1-.59-.13.42.42,0,0,1-.24-.31Z"></path></clipPath><clipPath id="clip-path-4"><path class="cls-1" d="M234.11,104.61v.63a12.15,12.15,0,0,0-4.63-.79v-.64A11.92,11.92,0,0,1,234.11,104.61Z"></path></clipPath><clipPath id="clip-path-5"><path class="cls-1" d="M250.43,115.54v.63a3.42,3.42,0,0,0-1.52-2.65v-.64A3.43,3.43,0,0,1,250.43,115.54Z"></path></clipPath><clipPath id="clip-path-6"><path class="cls-1" d="M252,116.19v.64c0,.25-.36.46-.8.46a1.28,1.28,0,0,1-.56-.14.36.36,0,0,1-.23-.33v-.64a.43.43,0,0,0,.23.34,1.16,1.16,0,0,0,.56.13C251.66,116.65,252,116.45,252,116.19Z"></path></clipPath><linearGradient id="Degradado_sin_nombre_3" x1="231.24" y1="104.83" x2="241.46" y2="104.83" gradientUnits="userSpaceOnUse"><stop offset="0" stop-color="#fff"></stop><stop offset="0.15" stop-color="#eaf6fc"></stop><stop offset="0.46" stop-color="#b3def4"></stop><stop offset="0.68" stop-color="#87cbed"></stop></linearGradient><linearGradient id="Degradado_sin_nombre_3-2" x1="242.09" y1="111.3" x2="253.05" y2="111.3" xlink:href="#Degradado_sin_nombre_3"></linearGradient><clipPath id="clip-path-7"><path class="cls-1" d="M239.6,97.29v-.62a.42.42,0,0,0,.24.31,1.17,1.17,0,0,0,.59.13v.64a1.17,1.17,0,0,1-.59-.14.41.41,0,0,1-.24-.31Z"></path></clipPath><clipPath id="clip-path-8"><path class="cls-1" d="M246.18,97.88v.64a11.81,11.81,0,0,0-4.63-.79v-.64A12.15,12.15,0,0,1,246.18,97.88Z"></path></clipPath><clipPath id="clip-path-9"><path class="cls-1" d="M262.5,108.81v.64a3.4,3.4,0,0,0-1.51-2.66v-.63A3.42,3.42,0,0,1,262.5,108.81Z"></path></clipPath><clipPath id="clip-path-10"><path class="cls-1" d="M264.09,109.47v.63c0,.26-.37.46-.81.46a1.15,1.15,0,0,1-.55-.13.41.41,0,0,1-.24-.33v-.64a.39.39,0,0,0,.24.33,1.27,1.27,0,0,0,.55.14C263.73,109.93,264.09,109.72,264.09,109.47Z"></path></clipPath><linearGradient id="Degradado_sin_nombre_3-3" x1="243.31" y1="98.11" x2="253.52" y2="98.11" xlink:href="#Degradado_sin_nombre_3"></linearGradient><linearGradient id="Degradado_sin_nombre_3-4" x1="254.16" y1="104.58" x2="265.12" y2="104.58" xlink:href="#Degradado_sin_nombre_3"></linearGradient><clipPath id="clip-path-11"><polygon class="cls-1" points="191.85 134.39 191.87 127.9 210.4 138.6 210.38 145.09 191.85 134.39"></polygon></clipPath><clipPath id="clip-path-12"><path class="cls-1" d="M223.88,126.81c-2.11-1.22-3.82-.25-3.82,2.18L220,146l0,16.69a8.36,8.36,0,0,0,3.8,6.58l29.36,17c2.1,1.21,3.82.24,3.82-2.18L257,167.2l.05-16.86a8.39,8.39,0,0,0-3.8-6.59l-14.68-8.47Z"></path></clipPath><clipPath id="clip-path-13"><polygon class="cls-1" points="191.85 194.04 191.87 187.54 210.4 198.24 210.38 204.73 191.85 194.04"></polygon></clipPath><clipPath id="clip-path-14"><path class="cls-1" d="M223.88,183.32c-2.11-1.22-3.82-.25-3.82,2.18l-.05,17,0,16.69a8.36,8.36,0,0,0,3.8,6.58l29.36,16.95c2.1,1.21,3.82.24,3.82-2.18l.05-16.86.05-16.86a8.4,8.4,0,0,0-3.8-6.59l-14.68-8.47Z"></path></clipPath></defs><title>Asset 1</title><g id="Layer_2" data-name="Layer 2"><g id="Layer_1-2" data-name="Layer 1"><path class="cls-2" d="M390.88,230.48s-211,6-219.3,4.58c-6.21,2.11-171.58,62-171.58,62l39.7,22.86s21.52,14.25,36.46,8.26l1-.38a31.64,31.64,0,0,1,25.18.71l1.94.91a31.62,31.62,0,0,0,26.87,0l36.76-17.29a52.52,52.52,0,0,1,48.73,2.1l1.07.62a54.9,54.9,0,0,0,53.8.75l21.44-14.1a67,67,0,0,1,21.9-7.38h0a67.14,67.14,0,0,0,25.6-9.56L391.24,255a14.38,14.38,0,0,0-.36-24.55Z"></path><g class="cls-3"><polygon class="cls-4" points="359.19 219.54 359.11 248.94 327.13 230.48 327.21 201.08 359.19 219.54"></polygon><polygon class="cls-5" points="359.19 219.54 390.96 201.08 390.88 230.48 359.11 248.94 359.19 219.54"></polygon><polygon class="cls-6" points="376.11 209.71 372.71 211.68 372.71 218.03 376.11 216.06 376.11 209.71"></polygon><polygon class="cls-7" points="327.21 201.08 358.98 182.62 390.96 201.08 359.19 219.54 327.21 201.08"></polygon></g><polygon class="cls-8" points="340.74 193.22 343.86 191.4 376.11 209.71 372.71 211.68 340.74 193.22"></polygon><g class="cls-3"><polygon class="cls-4" points="300.36 237.37 300.26 273.71 260.72 250.89 260.82 214.54 300.36 237.37"></polygon><polygon class="cls-5" points="300.36 237.37 339.64 214.54 339.54 250.89 300.26 273.71 300.36 237.37"></polygon><polygon class="cls-6" points="321.28 225.2 317.08 227.64 317.08 235.5 321.28 233.06 321.28 225.2"></polygon><polygon class="cls-7" points="260.82 214.54 300.1 191.71 339.64 214.54 300.36 237.37 260.82 214.54"></polygon></g><polygon class="cls-8" points="277.55 204.82 281.42 202.57 321.28 225.21 317.08 227.64 277.55 204.82"></polygon><g class="cls-3"><polygon class="cls-9" points="302.25 205.99 302.18 232.71 273.11 215.93 273.18 189.21 302.25 205.99"></polygon><polygon class="cls-10" points="302.25 205.99 331.13 189.21 331.05 215.93 302.18 232.71 302.25 205.99"></polygon><polygon class="cls-6" points="317.63 197.05 314.54 198.84 314.54 204.62 317.63 202.82 317.63 197.05"></polygon><polygon class="cls-11" points="273.18 189.21 302.06 172.43 331.13 189.21 302.25 205.99 273.18 189.21"></polygon></g><polygon class="cls-8" points="285.48 182.06 288.32 180.41 317.63 197.05 314.54 198.84 285.48 182.06"></polygon><g class="cls-3"><polygon class="cls-9" points="349.61 258.63 349.55 279.14 327.25 266.26 327.3 245.75 349.61 258.63"></polygon><polygon class="cls-10" points="349.61 258.63 371.77 245.75 371.71 266.26 349.55 279.14 349.61 258.63"></polygon><polygon class="cls-6" points="361.41 251.77 359.04 253.15 359.04 257.58 361.41 256.2 361.41 251.77"></polygon><polygon class="cls-11" points="327.3 245.75 349.46 232.88 371.77 245.75 349.61 258.63 327.3 245.75"></polygon></g><polygon class="cls-8" points="336.74 240.27 338.92 239 361.41 251.77 359.04 253.15 336.74 240.27"></polygon><polygon class="cls-10" points="72.84 293.85 68.26 242.32 29.68 222.53 19.93 228.53 13.24 280.86 56.45 305.81 63.39 297.36 72.84 293.85"></polygon><polygon class="cls-12" points="63.24 249.77 61.14 300.21 63.39 297.36 65.63 296.53 63.24 249.77"></polygon><polygon class="cls-13" points="68.26 242.32 29.68 222.53 19.93 228.53 58.1 248.66 68.26 242.32"></polygon><polygon class="cls-14" points="29.68 222.53 19.93 228.53 29.19 233.42 29.68 222.53"></polygon><polygon class="cls-9" points="19.93 228.53 13.24 280.86 56.45 305.81 58.1 248.66 19.93 228.53"></polygon><path class="cls-8" d="M48.43,251.79a24.52,24.52,0,0,1-4,12.09c-3.32,5-11,6.27-14.9,1-4.6-6.27-4.07-16.55-1.64-23.49.58-1.64-2-2.34-2.59-.72-2.94,8.41-3.62,26,7.11,29.61,11.78,3.91,18.27-8.4,18.73-18.48C51.2,250.06,48.51,250.06,48.43,251.79Z"></path><polygon class="cls-15" points="49.4 307.83 45.6 265.12 13.63 248.71 5.55 253.69 0 297.06 35.81 317.74 41.57 310.74 49.4 307.83"></polygon><polygon class="cls-16" points="41.45 271.29 39.7 313.1 41.57 310.74 43.42 310.05 41.45 271.29"></polygon><polygon class="cls-17" points="45.6 265.12 13.63 248.71 5.55 253.69 37.18 270.37 45.6 265.12"></polygon><polygon class="cls-18" points="13.63 248.71 5.55 253.69 13.22 257.74 13.63 248.71"></polygon><polygon class="cls-19" points="5.55 253.69 0 297.06 35.81 317.74 37.18 270.37 5.55 253.69"></polygon><path class="cls-4" d="M29.17,273a20.38,20.38,0,0,1-3.34,10c-2.75,4.13-9.12,5.2-12.35.81-3.81-5.19-3.37-13.71-1.35-19.47.47-1.35-1.68-1.94-2.15-.59-2.44,7-3,21.59,5.89,24.54,9.76,3.24,15.14-7,15.53-15.31C31.46,271.53,29.23,271.53,29.17,273Z"></path><g class="cls-3"><path class="cls-20" d="M177.48,234.24c1.86,6.17,6.25,12.29,11.36,15.24l-5.5,3.2c-5.11-3-9.49-9.07-11.36-15.25Z"></path><path class="cls-20" d="M176.53,228.16a20.9,20.9,0,0,0,.95,6.08l-5.5,3.19a20.83,20.83,0,0,1-.95-6.07Z"></path><path class="cls-20" d="M222.56,261.2a14.49,14.49,0,0,0,5,5.25l-5.5,3.19a14.31,14.31,0,0,1-5-5.25Z"></path><path class="cls-21" d="M227.54,267.83c2.29,1.32,4.37,1.44,5.87.57l-5.5,3.2c-1.5.87-3.58.75-5.87-.58Z"></path><path class="cls-21" d="M221.72,248.3c-1.48.86-2.4,2.69-2.4,5.29l-5.5,3.19c0-2.6.92-4.43,2.4-5.29Z"></path><path class="cls-20" d="M227.54,266.45c2,1.13,3.74,1.23,5,.49l-5.5,3.19c-1.28.75-3.06.64-5-.49Z"></path><path class="cls-20" d="M220.52,254.28a14.22,14.22,0,0,0,2,6.92l-5.5,3.19a14.21,14.21,0,0,1-2-6.91c0-2.23.79-3.79,2.06-4.53l5.5-3.19C221.31,250.49,220.52,252.06,220.52,254.28Z"></path><path class="cls-21" d="M217.08,253l5.5-3.19c1.28-.75,3-.64,5,.49l-5.5,3.19C220.13,252.31,218.36,252.21,217.08,253Z"></path><path class="cls-20" d="M216.22,251.49l5.5-3.19c1.5-.87,3.58-.75,5.87.57l-5.5,3.2C219.8,250.74,217.72,250.62,216.22,251.49Z"></path><path class="cls-21" d="M232.56,266.94l-5.5,3.19c1.27-.73,2.05-2.29,2.06-4.51a15.52,15.52,0,0,0-7-12.18l5.5-3.19a15.5,15.5,0,0,1,7,12.17C234.61,264.64,233.83,266.2,232.56,266.94Z"></path><path class="cls-20" d="M233.41,268.4l-5.5,3.2c1.48-.86,2.4-2.69,2.4-5.29,0-5.24-3.66-11.61-8.22-14.24l5.5-3.2c4.56,2.63,8.24,9,8.22,14.24C235.8,265.71,234.89,267.54,233.41,268.4Z"></path><path class="cls-20" d="M275,295l-5.5,3.2c-2.24,1.3-5.35,1.12-8.78-.86l5.5-3.19C269.65,296.14,272.76,296.32,275,295Z"></path><polygon class="cls-20" points="171.64 15.3 177.14 12.1 176.53 228.16 171.03 231.36 171.64 15.3"></polygon><polygon class="cls-21" points="176.03 221.85 181.53 218.66 273.67 271.86 268.18 275.05 176.03 221.85"></polygon><polygon class="cls-21" points="176.57 31.78 182.07 28.59 181.53 218.66 176.03 221.85 176.57 31.78"></polygon><path class="cls-20" d="M178.16,7.08a11.53,11.53,0,0,0-1,5l-5.5,3.2a11.57,11.57,0,0,1,1-5Z"></path><path class="cls-20" d="M178.16,7.08s-.06,0-.09,0l-5.41,3.14a6.52,6.52,0,0,1,2.59-2.88l5.49-3.2A6.53,6.53,0,0,0,178.16,7.08Z"></path><path class="cls-21" d="M175.24,7.39l5.5-3.2c2.25-1.3,5.36-1.12,8.79.86L184,8.24C180.6,6.26,177.49,6.08,175.24,7.39Z"></path><path class="cls-21" d="M209.78,31.28l-5.5,3.2a1.07,1.07,0,0,1,.46-1l5.49-3.2A1.1,1.1,0,0,0,209.78,31.28Z"></path><path class="cls-21" d="M211.33,34a1.07,1.07,0,0,0,1.1.11l-5.5,3.2a1.1,1.1,0,0,1-1.1-.11,3.4,3.4,0,0,1-1.55-2.68l5.5-3.2h0A3.4,3.4,0,0,0,211.33,34Z"></path><path class="cls-22" d="M204.74,33.49l5.49-3.2a1.11,1.11,0,0,1,1.11.11l-5.5,3.19A1.09,1.09,0,0,0,204.74,33.49Z"></path><path class="cls-22" d="M212.43,34.07l-5.5,3.2a1.08,1.08,0,0,0,.45-1,3.42,3.42,0,0,0-1.54-2.68l5.5-3.19a3.39,3.39,0,0,1,1.54,2.68A1.07,1.07,0,0,1,212.43,34.07Z"></path><path class="cls-21" d="M214.47,40l5.5-3.19a.57.57,0,0,0-.24.53,1.82,1.82,0,0,0,.82,1.42l-5.5,3.2a1.84,1.84,0,0,1-.82-1.43A.58.58,0,0,1,214.47,40Z"></path><path class="cls-22" d="M214.47,40l5.5-3.19a.58.58,0,0,1,.59,0l-5.5,3.2A.61.61,0,0,0,214.47,40Z"></path><path class="cls-21" d="M236.39,47.59l-5.5,3.2a.56.56,0,0,1-.59-.06l5.5-3.19A.58.58,0,0,0,236.39,47.59Z"></path><path class="cls-23" d="M230.31,48.84a1.82,1.82,0,0,1,.82,1.42c0,.52-.37.74-.83.47l-15.25-8.8a1.84,1.84,0,0,1-.82-1.43c0-.52.37-.73.83-.47Z"></path><path class="cls-22" d="M236.39,47.59l-5.5,3.2a.58.58,0,0,0,.24-.53,1.82,1.82,0,0,0-.82-1.42l5.5-3.2a1.82,1.82,0,0,1,.82,1.43A.55.55,0,0,1,236.39,47.59Z"></path><polygon class="cls-22" points="215.06 40.03 220.56 36.84 235.81 45.64 230.31 48.84 215.06 40.03"></polygon><path class="cls-21" d="M228.2,35a.59.59,0,0,0,.59.06l-5.5,3.19a.56.56,0,0,1-.59-.06,1.77,1.77,0,0,1-.82-1.43l5.49-3.2A1.83,1.83,0,0,0,228.2,35Z"></path><path class="cls-21" d="M227.62,33a.57.57,0,0,0-.25.52l-5.49,3.2a.58.58,0,0,1,.24-.53Z"></path><path class="cls-22" d="M222.12,36.22l5.5-3.19a.56.56,0,0,1,.58,0l-5.5,3.2A.57.57,0,0,0,222.12,36.22Z"></path><path class="cls-22" d="M228.79,35.05l-5.5,3.19a.57.57,0,0,0,.24-.53,1.8,1.8,0,0,0-.83-1.43l5.5-3.2a1.81,1.81,0,0,1,.83,1.43A.58.58,0,0,1,228.79,35.05Z"></path><polygon class="cls-24" points="176.57 31.78 182.07 28.59 274.21 81.79 268.71 84.98 176.57 31.78"></polygon><polygon class="cls-24" points="268.71 84.98 274.21 81.79 273.67 271.86 268.18 275.05 268.71 84.98"></polygon><path class="cls-25" d="M261.41,52.92c6.81,3.93,12.33,13.49,12.31,21.31l-.61,216.06c0,7.83-5.58,11-12.39,7.06l-77.38-44.67c-6.81-3.93-12.34-13.5-12.31-21.32l.61-216.06c0-7.83,5.58-11,12.39-7.06Zm6.76,222.13L268.71,85l-92.14-53.2L176,221.85l92.14,53.2M222,271c4.55,2.63,8.26.52,8.27-4.71s-3.66-11.61-8.22-14.24-8.26-.52-8.27,4.71S217.48,268.39,222,271m-7-231c-.46-.26-.83-.05-.83.47a1.84,1.84,0,0,0,.82,1.43l15.25,8.8c.46.27.83.05.83-.47a1.82,1.82,0,0,0-.82-1.42L215.06,40m-9.22-6.44c-.86-.49-1.56-.09-1.56.89a3.4,3.4,0,0,0,1.55,2.68c.85.49,1.55.1,1.55-.89a3.42,3.42,0,0,0-1.54-2.68m16.86,2.69c-.45-.26-.82-.05-.82.47a1.77,1.77,0,0,0,.82,1.43c.46.27.83.06.83-.47a1.8,1.8,0,0,0-.83-1.43"></path><path class="cls-25" d="M222.09,253.44a15.52,15.52,0,0,1,7,12.18c0,4.47-3.19,6.27-7.08,4a15.49,15.49,0,0,1-7-12.16C215,253,218.19,251.19,222.09,253.44Z"></path><polygon class="cls-21" points="273.72 74.23 279.22 71.04 278.61 287.1 273.11 290.29 273.72 74.23"></polygon><path class="cls-23" d="M205.84,33.59a3.42,3.42,0,0,1,1.54,2.68c0,1-.7,1.38-1.55.89a3.4,3.4,0,0,1-1.55-2.68C204.28,33.5,205,33.1,205.84,33.59Z"></path><path class="cls-23" d="M222.7,36.28a1.8,1.8,0,0,1,.83,1.43c0,.53-.37.74-.83.47a1.77,1.77,0,0,1-.82-1.43C221.88,36.23,222.25,36,222.7,36.28Z"></path><polygon class="cls-8" points="268.71 84.98 268.18 275.05 176.03 221.85 176.57 31.78 268.71 84.98"></polygon><path class="cls-21" d="M261.41,52.92l5.5-3.2c6.81,3.93,12.33,13.49,12.31,21.32l-5.5,3.19C273.74,66.41,268.22,56.85,261.41,52.92Z"></path><path class="cls-11" d="M261.42,49.92,184,5.25c-8.26-4.77-15-1-15,8.54l-.61,216.06c0,9.49,6.65,21.05,14.91,25.82l77.38,44.68c8.26,4.76,15,.93,15-8.55l.61-216.06C276.35,66.24,269.68,54.69,261.42,49.92Zm11.69,240.37c0,7.83-5.58,11-12.39,7.06l-77.38-44.67c-6.81-3.93-12.34-13.5-12.31-21.32l.61-216.06c0-7.83,5.58-11,12.39-7.06l77.38,44.68c6.81,3.93,12.33,13.49,12.31,21.31l-.61,216.06"></path><path class="cls-21" d="M222,271l1.32-.76-.15-.06-.09,0a8.93,8.93,0,0,1-1.08-.53,11.18,11.18,0,0,1-1.55-1.09l-.45-.4-.42-.4c-.15-.15-.3-.3-.44-.46s-.37-.41-.54-.62l-.38-.48-.43-.59c-.17-.25-.33-.5-.49-.75l0-.05-.25-.41c-.14-.25-.28-.5-.41-.76a.25.25,0,0,0,0-.07c-.13-.26-.25-.52-.37-.79l0-.07c-.18-.42-.35-.84-.49-1.26l0-.05a12.48,12.48,0,0,1-.68-3.91,8.37,8.37,0,0,1,.13-1.47l-1.33.77C213.8,262,217.48,268.39,222,271Z"></path><path class="cls-11" d="M222.09,252.07c4.56,2.63,8.24,9,8.22,14.24s-3.72,7.34-8.27,4.71-8.24-9-8.22-14.24S217.54,249.44,222.09,252.07ZM222,269.64c3.89,2.25,7.06.45,7.08-4a15.52,15.52,0,0,0-7-12.18c-3.9-2.25-7.06-.44-7.07,4a15.49,15.49,0,0,0,7,12.16"></path><path class="cls-23" d="M266.92,46.73,189.54,2.05c-4.16-2.4-7.93-2.62-10.65-1l-5.5,3.19c2.72-1.58,6.49-1.35,10.65,1l77.38,44.67c8.26,4.77,14.93,16.32,14.9,25.82l-.61,216.06c0,4.71-1.68,8-4.36,9.59l5.5-3.2c2.68-1.56,4.35-4.88,4.36-9.59l.61-216.06C281.85,63.05,275.18,51.5,266.92,46.73Z"></path></g><path class="cls-19" d="M220.83,80.59,193.58,64.86c-5.23-3-9.49-.6-9.5,5.42s4.21,13.32,9.44,16.34l27.31,15.77Z"></path><g class="cls-3"><g class="cls-26"><path class="cls-8" d="M193.75,74.85c-1.06-.61-1.77-.28-1.77.69a3.88,3.88,0,0,0,1.44,2.62,2.62,2.62,0,0,1,1,1.84c0,.64-.42.83-1.15.42A4.78,4.78,0,0,1,192,79.28l-.18.57a5.28,5.28,0,0,0,1.4,1.21c1.29.74,1.92.27,1.92-.71a3.83,3.83,0,0,0-1.39-2.65c-.76-.77-1.09-1.25-1.09-1.84,0-.43.29-.78,1-.35a3.8,3.8,0,0,1,1,.9l.2-.55a4.51,4.51,0,0,0-1.21-1"></path><polyline class="cls-8" points="200.21 78.69 199.5 78.27 199.49 80.91 196.84 79.38 196.85 76.74 196.15 76.34 196.13 82.63 196.83 83.03 196.84 80.09 199.49 81.62 199.48 84.56 200.19 84.97 200.21 78.69"></polyline><path class="cls-8" d="M203.6,86.38a4.18,4.18,0,0,1-1.74-3.55c0-1.38.59-2.29,1.76-1.61a4.24,4.24,0,0,1,1.74,3.56c0,1.43-.64,2.25-1.76,1.6m.05-5.81c-1.46-.84-2.54-.16-2.55,1.83A5.47,5.47,0,0,0,203.55,87c1.4.8,2.55.32,2.55-1.85a5.36,5.36,0,0,0-2.45-4.6"></path><path class="cls-8" d="M208.31,86.54a3.08,3.08,0,0,1-.58-.4V83.7a3.25,3.25,0,0,1,.67.32,2.31,2.31,0,0,1,1.29,2c0,.87-.53,1-1.38.55m.08-3.18A9.39,9.39,0,0,0,207,82.7l0,6.21.71.41V86.8a5.16,5.16,0,0,0,.57.39c.7.4,1.3.51,1.68.27s.42-.53.42-1.1a3,3,0,0,0-.47-1.59,4.21,4.21,0,0,0-1.53-1.41"></path></g></g><g class="cls-27"><path class="cls-28" d="M223.88,70.3c-2.11-1.22-3.82-.25-3.82,2.18l-.05,17,0,16.69a8.36,8.36,0,0,0,3.8,6.58l29.36,16.95c2.1,1.21,3.82.24,3.82-2.18l.05-16.86L257,93.83a8.39,8.39,0,0,0-3.8-6.59l-14.68-8.47Z"></path><path class="cls-25" d="M220,106.2a8.36,8.36,0,0,0,3.8,6.58l29.36,16.95c2.1,1.21,3.82.24,3.82-2.18l.05-16.86L257,93.83a8.39,8.39,0,0,0-3.8-6.59Z"></path><g class="cls-3"><polygon class="cls-15" points="229.48 103.81 229.48 104.45 228.36 104.47 228.36 103.84 229.48 103.81"></polygon><g class="cls-3"><g class="cls-29"><g class="cls-3"><path class="cls-15" d="M228.36,103.84v.63h-.06v-.63h.06"></path><path class="cls-15" d="M228.3,103.84v.63h-.08v-.64h.07"></path><path class="cls-15" d="M228.23,103.83v.64h-.07v-.64h.08"></path><path class="cls-15" d="M228.15,103.82v.64h-.08v-.64h.08"></path><path class="cls-15" d="M228.07,103.81v.64l-.09,0v-.64l.09,0"></path><path class="cls-15" d="M228,103.79v.64l-.09,0v-.63l.09,0"></path><path class="cls-15" d="M227.89,103.76v.63a.33.33,0,0,1-.12,0,.42.42,0,0,1-.24-.31v-.64a.39.39,0,0,0,.23.31l.12.06"></path></g></g></g><g class="cls-3"><g class="cls-30"><g class="cls-3"><path class="cls-15" d="M234.11,104.61v.63l-.08,0v-.63l.07,0"></path><path class="cls-15" d="M234,104.58v.63c-.29-.11-.6-.22-.92-.31v-.64c.32.1.63.2.93.32"></path><path class="cls-15" d="M233.11,104.26v.64l-.8-.2v-.63c.27.05.54.12.8.19"></path><path class="cls-15" d="M232.31,104.07v.63l-.76-.13v-.63c.25,0,.5.08.75.13"></path><path class="cls-15" d="M231.56,103.94v.63l-.73-.08v-.63c.25,0,.49,0,.74.08"></path><path class="cls-15" d="M230.82,103.86v.63l-.74,0v-.63c.25,0,.5,0,.74,0"></path><path class="cls-15" d="M230.08,103.82v.63h-.6v-.64h.6"></path></g></g></g><path class="cls-19" d="M253.61,111.58l-.74.62-18.76-7.59a11.92,11.92,0,0,0-4.63-.8l-1.12,0a1.17,1.17,0,0,1-.59-.14.39.39,0,0,1-.23-.31c0-.25.32-.47.76-.48l1.66,0a8.75,8.75,0,0,1,3.45.59Z"></path><polygon class="cls-15" points="253.62 111.58 253.61 112.22 252.86 112.84 252.87 112.2 253.62 111.58"></polygon><polygon class="cls-15" points="252.87 112.2 252.86 112.84 234.11 105.24 234.11 104.61 252.87 112.2"></polygon></g><g class="cls-3"><polygon class="cls-15" points="248.92 112.88 248.91 113.52 233.82 101.78 233.82 101.14 248.92 112.88"></polygon><g class="cls-3"><g class="cls-31"><g class="cls-3"><path class="cls-15" d="M250.43,115.54v.63a3.42,3.42,0,0,0-1.52-2.65v-.64a3.43,3.43,0,0,1,1.51,2.66"></path></g></g></g><polygon class="cls-15" points="250.43 116.18 250.43 116.82 250.43 116.17 250.43 115.54 250.43 116.18"></polygon><polygon class="cls-15" points="252.02 115.23 252.02 115.87 252.02 116.83 252.02 116.19 252.02 115.23"></polygon><path class="cls-19" d="M234.87,100.69l16,12.56a2.53,2.53,0,0,1,1.11,2v1c0,.26-.36.46-.8.46a1.16,1.16,0,0,1-.56-.13.43.43,0,0,1-.23-.34v-.64a3.43,3.43,0,0,0-1.51-2.66l-15.1-11.74Z"></path><g class="cls-3"><g class="cls-32"><g class="cls-3"><polyline class="cls-15" points="252.02 116.19 252.02 116.83 252.02 116.83 252.02 116.2 252.02 116.19"></polyline><path class="cls-15" d="M252,116.2v.63a.07.07,0,0,1,0,0v-.64a.06.06,0,0,0,0,0"></path><path class="cls-15" d="M252,116.24v.64s0,0,0,0v-.63a.09.09,0,0,0,0-.05"></path><path class="cls-15" d="M252,116.29v.63s0,0,0,0v-.64a.08.08,0,0,0,0,0"></path><path class="cls-15" d="M252,116.33V117l0,0v-.64l0,0"></path><path class="cls-15" d="M252,116.38V117l0,0v-.64l0-.05"></path><path class="cls-15" d="M251.9,116.43v.64l-.1.08v-.64a.39.39,0,0,0,.1-.08"></path><path class="cls-15" d="M251.8,116.51v.64l-.19.08v-.64l.19-.08"></path><path class="cls-15" d="M251.61,116.59v.64l-.15,0v-.63l.15,0"></path><path class="cls-15" d="M251.46,116.63v.63l-.1,0v-.64h.1"></path><path class="cls-15" d="M251.36,116.64v.64h-.09v-.63h.09"></path><path class="cls-15" d="M251.27,116.65v.63h-.08v-.64h.08"></path><path class="cls-15" d="M251.19,116.65v.64h-.08v-.64h.08"></path><path class="cls-15" d="M251.11,116.64v.64H251v-.63h.08"></path><path class="cls-15" d="M251,116.64v.63H251v-.64l.08,0"></path><path class="cls-15" d="M251,116.62v.64l-.08,0v-.64l.08,0"></path><path class="cls-15" d="M250.87,116.6v.64l-.1,0v-.64l.09,0"></path><path class="cls-15" d="M250.78,116.57v.64l-.11-.06a.36.36,0,0,1-.23-.33v-.64a.43.43,0,0,0,.23.34l.12,0"></path></g></g></g></g><g class="cls-3"><path class="cls-15" d="M241.46,106v.64a1.09,1.09,0,0,0,0-.18,2.6,2.6,0,0,0-.44-.94,7.44,7.44,0,0,0-2.4-2.09l-.25-.14a6,6,0,0,0-3.55-1,4.84,4.84,0,0,0-3.36,2.39,1.34,1.34,0,0,0-.2.69v-.63a1.38,1.38,0,0,1,.2-.7,4.81,4.81,0,0,1,3.36-2.38,6,6,0,0,1,3.56,1l.24.14a7.3,7.3,0,0,1,2.4,2.08,2.68,2.68,0,0,1,.44.94A1.1,1.1,0,0,1,241.46,106Z"></path><path class="cls-15" d="M253.05,111.93v.63c0-.69-.91-1.29-1.74-1.79a1.38,1.38,0,0,0-.24-.14,12.87,12.87,0,0,0-3.61-1.39,10.35,10.35,0,0,0-1.62-.24,3.32,3.32,0,0,0-3.75,2.77v-.64a3.32,3.32,0,0,1,3.75-2.77,10.34,10.34,0,0,1,1.62.25,13.37,13.37,0,0,1,3.62,1.38l.24.14C252.14,110.64,253.05,111.23,253.05,111.93Z"></path><path class="cls-33" d="M253.05,112.56a.8.8,0,0,1-.05.26v-.64a1.09,1.09,0,0,0,0-.25Z"></path><g class="cls-34"><path class="cls-35" d="M241.44,105.82c.32,1.49-3.37,2.36-5.47,2.15-.26,0-.5-.08-.75-.11a5.77,5.77,0,0,1-2.16-.74c-1.4-.8-2.22-2.08-1.62-3.05a4.81,4.81,0,0,1,3.36-2.38,6,6,0,0,1,3.56,1l.24.14a7.3,7.3,0,0,1,2.4,2.08A2.68,2.68,0,0,1,241.44,105.82Z"></path></g><g class="cls-36"><path class="cls-37" d="M253,112.18c-.32,1-2.62,1.65-4.1,2a8.36,8.36,0,0,1-5.29-.92,2.93,2.93,0,0,1-1.27-1.25c0-.14-.15-.28-.2-.43-.37-1.22,1.12-3.36,3.69-3.18a10.34,10.34,0,0,1,1.62.25,13.37,13.37,0,0,1,3.62,1.38l.24.14C252.24,110.7,253.27,111.38,253,112.18Z"></path></g><path class="cls-1" d="M251.32,110.13l-.24-.14a13.37,13.37,0,0,0-3.62-1.38,10.34,10.34,0,0,0-1.62-.25c-2.57-.18-4.06,2-3.69,3.18,0,.15.15.29.2.43a2.93,2.93,0,0,0,1.27,1.25,8.36,8.36,0,0,0,5.29.92c1.48-.31,3.78-1,4.1-2C253.27,111.38,252.24,110.7,251.32,110.13Z"></path><path class="cls-1" d="M241,104.88a7.3,7.3,0,0,0-2.4-2.08l-.24-.14a6,6,0,0,0-3.56-1,4.81,4.81,0,0,0-3.36,2.38c-.6,1,.22,2.25,1.62,3.05a5.77,5.77,0,0,0,2.16.74c.25,0,.49.09.75.11,2.1.21,5.79-.66,5.47-2.15A2.68,2.68,0,0,0,241,104.88Z"></path><path class="cls-1" d="M241,104.88a7.3,7.3,0,0,0-2.4-2.08l-.24-.14a6,6,0,0,0-3.56-1,4.81,4.81,0,0,0-3.36,2.38c-.6,1,.22,2.25,1.62,3.05a5.77,5.77,0,0,0,2.16.74c.25,0,.49.09.75.11,2.1.21,5.79-.66,5.47-2.15A2.68,2.68,0,0,0,241,104.88Z"></path><path class="cls-1" d="M251.32,110.13l-.24-.14a13.37,13.37,0,0,0-3.62-1.38,10.34,10.34,0,0,0-1.62-.25c-2.57-.18-4.06,2-3.69,3.18,0,.15.15.29.2.43a2.93,2.93,0,0,0,1.27,1.25,8.36,8.36,0,0,0,5.29.92c1.48-.31,3.78-1,4.1-2C253.27,111.38,252.24,110.7,251.32,110.13Z"></path><path class="cls-15" d="M255.56,112.42c0-.06-.05-.13-.16-.23l-1.05-.84a28.75,28.75,0,0,0-2.83-1.95,10.81,10.81,0,0,0-3.12-1.26c-.32-.07-.64-.12-1-.18l-1.56-.23a2.1,2.1,0,0,1-1.05-.33l-.86-.49-.87-.51c-.29-.16-.55-.34-.59-.63s-.25-.58-.39-.87a4.32,4.32,0,0,0-.3-.56,6.52,6.52,0,0,0-2.18-1.79,32.9,32.9,0,0,0-3.4-1.64c-.47-.21-1-.41-1.45-.61a.77.77,0,0,0-.79,0c-.19.1-1.43.82-1.45,1.07a.41.41,0,0,1,0,.09l-.53.58a10.61,10.61,0,0,0-1.22,1.41,2,2,0,0,0-.34,1.39,1,1,0,0,1,0-.24v.64a2.15,2.15,0,0,0,.82,1.6,6.76,6.76,0,0,0,1.23.91,10.17,10.17,0,0,0,1.91.83,7.73,7.73,0,0,0,2.79.36,11.71,11.71,0,0,0,2.08-.3c.71-.16,1.41-.35,2.11-.53a1.58,1.58,0,0,1,.94,0l.34.15.25.19c-.28.38-.58.76-.84,1.14a3,3,0,0,0-.5,1.21,1.48,1.48,0,0,0,0,.42,1.15,1.15,0,0,1,0-.19v.64a2,2,0,0,0,.66,1.38,6.35,6.35,0,0,0,1.42,1.09,10,10,0,0,0,1.58.72,8.63,8.63,0,0,0,4.76.25c.86-.18,1.64-.46,2.44-.71l1-.31a.8.8,0,0,1,.15,0,6.79,6.79,0,0,0,1.85-.84c.15-.09.22-.16.22-.24v-.63ZM236,108c-.26,0-.5-.08-.75-.11a5.77,5.77,0,0,1-2.16-.74c-1.4-.8-2.22-2.08-1.62-3.05a4.81,4.81,0,0,1,3.36-2.38,6,6,0,0,1,3.56,1l.24.14a7.3,7.3,0,0,1,2.4,2.08,2.68,2.68,0,0,1,.44.94C241.76,107.31,238.07,108.18,236,108Zm17,4.21c-.32,1-2.62,1.65-4.1,2a8.36,8.36,0,0,1-5.29-.92,2.93,2.93,0,0,1-1.27-1.25c0-.14-.15-.28-.2-.43-.37-1.22,1.12-3.36,3.69-3.18a10.34,10.34,0,0,1,1.62.25,13.37,13.37,0,0,1,3.62,1.38l.24.14C252.24,110.7,253.27,111.38,253,112.18Z"></path></g><path class="cls-19" d="M255.4,112.19l-1.05-.84a28.75,28.75,0,0,0-2.83-1.95,10.81,10.81,0,0,0-3.12-1.26c-.32-.07-.64-.12-1-.18l-1.56-.23a2.1,2.1,0,0,1-1.05-.33l-.86-.49-.87-.51c-.29-.16-.55-.34-.59-.63s-.25-.58-.39-.87a4.32,4.32,0,0,0-.3-.56,6.52,6.52,0,0,0-2.18-1.79,32.9,32.9,0,0,0-3.4-1.64c-.47-.21-1-.41-1.45-.61a.77.77,0,0,0-.79,0c-.19.1-1.43.82-1.45,1.07a.41.41,0,0,1,0,.09l-.53.58a10.61,10.61,0,0,0-1.22,1.41,2,2,0,0,0-.34,1.39v.05c0,.1,0,.2.08.3v0a1.35,1.35,0,0,0,.14.3l0,0a1.94,1.94,0,0,0,.21.29l0,.06a4,4,0,0,0,.29.3h0a6.93,6.93,0,0,0,1.24.9l.21.12a10.46,10.46,0,0,0,1.69.71,7.76,7.76,0,0,0,2.79.36c.36,0,.71,0,1.06-.1s.69-.11,1-.19c.71-.17,1.41-.36,2.11-.54a2.05,2.05,0,0,1,.49-.06,1.71,1.71,0,0,1,.45.09l.34.16a2.48,2.48,0,0,1,.26.19h0a.71.71,0,0,1,.12.13.11.11,0,0,1,0,0,.38.38,0,0,1,0,.1.43.43,0,0,1-.1.27l-.07.08c-.28.38-.58.76-.84,1.14a3,3,0,0,0-.5,1.21,1.87,1.87,0,0,0,.64,1.61,6.52,6.52,0,0,0,1.43,1.1,8.75,8.75,0,0,0,1.57.71,8.63,8.63,0,0,0,4.76.25,23,23,0,0,0,2.44-.71l1-.31.16,0a7.26,7.26,0,0,0,1.85-.85C255.62,112.48,255.63,112.38,255.4,112.19ZM236,108c-.26,0-.5-.08-.75-.11a5.77,5.77,0,0,1-2.16-.74c-1.4-.8-2.22-2.08-1.62-3.05a4.81,4.81,0,0,1,3.36-2.38,6,6,0,0,1,3.56,1l.24.14a7.3,7.3,0,0,1,2.4,2.08,2.68,2.68,0,0,1,.44.94C241.76,107.31,238.07,108.18,236,108Zm17,4.21c-.32,1-2.62,1.65-4.1,2a8.36,8.36,0,0,1-5.29-.92,2.93,2.93,0,0,1-1.27-1.25c0-.14-.15-.28-.2-.43-.37-1.22,1.12-3.36,3.69-3.18a10.34,10.34,0,0,1,1.62.25,13.37,13.37,0,0,1,3.62,1.38l.24.14C252.24,110.7,253.27,111.38,253,112.18Z"></path><g class="cls-3"><polygon class="cls-7" points="241.55 97.09 241.54 97.73 240.43 97.75 240.43 97.11 241.55 97.09"></polygon><g class="cls-3"><g class="cls-38"><g class="cls-3"><path class="cls-7" d="M240.43,97.11v.64h-.06v-.64h.06"></path><path class="cls-7" d="M240.37,97.11v.64h-.08v-.64h.08"></path><path class="cls-7" d="M240.29,97.11v.64h-.08V97.1h.07"></path><path class="cls-7" d="M240.22,97.1v.64l-.08,0v-.63h.08"></path><path class="cls-7" d="M240.14,97.09v.63l-.08,0v-.63l.09,0"></path><path class="cls-7" d="M240.05,97.07v.63l-.1,0V97l.1,0"></path><path class="cls-7" d="M240,97v.64l-.11-.06a.41.41,0,0,1-.24-.31h0v-.62a.42.42,0,0,0,.24.31l.11,0"></path></g></g></g><g class="cls-3"><g class="cls-39"><g class="cls-3"><path class="cls-7" d="M246.18,97.88v.64l-.08,0v-.64l.08,0"></path><path class="cls-7" d="M246.1,97.85v.64c-.3-.12-.61-.22-.92-.31v-.64c.32.09.63.2.92.31"></path><path class="cls-7" d="M245.18,97.54v.64c-.27-.08-.53-.14-.81-.2v-.64l.8.2"></path><path class="cls-7" d="M244.38,97.34V98l-.75-.13v-.64l.76.13"></path><path class="cls-7" d="M243.62,97.21v.64l-.73-.08v-.64l.73.08"></path><path class="cls-7" d="M242.89,97.13v.64c-.25,0-.5,0-.74,0v-.64l.74,0"></path><path class="cls-7" d="M242.15,97.09v.64q-.3,0-.6,0v-.64h.6"></path></g></g></g><path class="cls-4" d="M265.68,104.86l-.75.62-18.75-7.6a12.15,12.15,0,0,0-4.63-.79l-1.12,0a1.17,1.17,0,0,1-.59-.13.42.42,0,0,1-.24-.31c0-.26.33-.47.77-.48l1.66,0a8.92,8.92,0,0,1,3.44.58Z"></path><polygon class="cls-7" points="265.68 104.86 265.68 105.49 264.93 106.12 264.93 105.48 265.68 104.86"></polygon><polygon class="cls-7" points="264.93 105.48 264.93 106.12 246.18 98.52 246.18 97.88 264.93 105.48"></polygon></g><g class="cls-3"><polygon class="cls-7" points="260.98 106.16 260.98 106.79 245.89 95.06 245.89 94.42 260.98 106.16"></polygon><g class="cls-3"><g class="cls-40"><g class="cls-3"><path class="cls-7" d="M262.5,108.81v.64a3.4,3.4,0,0,0-1.51-2.66v-.63a3.42,3.42,0,0,1,1.52,2.65"></path></g></g></g><polygon class="cls-7" points="262.49 109.46 262.49 110.1 262.49 109.45 262.5 108.81 262.49 109.46"></polygon><polygon class="cls-7" points="264.09 108.51 264.09 109.14 264.08 110.1 264.09 109.47 264.09 108.51"></polygon><path class="cls-4" d="M246.94,94l16,12.56a2.54,2.54,0,0,1,1.12,2v1c0,.25-.36.46-.81.46a1.27,1.27,0,0,1-.55-.14.39.39,0,0,1-.24-.33v-.65a3.42,3.42,0,0,0-1.52-2.65L245.89,94.42Z"></path><g class="cls-3"><g class="cls-41"><g class="cls-3"><polyline class="cls-7" points="264.09 109.47 264.08 110.1 264.08 110.11 264.09 109.47 264.09 109.47"></polyline><path class="cls-7" d="M264.09,109.47v0a.43.43,0,0,0,0,0"></path><path class="cls-7" d="M264.08,109.52v.64s0,0,0,0v-.64s0,0,0,0"></path><path class="cls-7" d="M264.07,109.56v.64s0,0,0,0v-.64l0,0"></path><path class="cls-7" d="M264.05,109.61v.64l0,0v-.63l0,0"></path><path class="cls-7" d="M264,109.66v.63l0,.06v-.64l0,0"></path><path class="cls-7" d="M264,109.71v.64l-.11.07v-.64l.1-.07"></path><path class="cls-7" d="M263.87,109.78v.64a.75.75,0,0,1-.18.08v-.63a.66.66,0,0,0,.19-.09"></path><path class="cls-7" d="M263.68,109.87v.63l-.15,0v-.64a.8.8,0,0,0,.15,0"></path><path class="cls-7" d="M263.53,109.9v.64l-.1,0v-.64l.1,0"></path><path class="cls-7" d="M263.43,109.92v.64h-.09v-.64h.09"></path><path class="cls-7" d="M263.34,109.92v.64h-.09v-.64h.09"></path><path class="cls-7" d="M263.25,109.92v.64h-.08v-.64h.07"></path><path class="cls-7" d="M263.18,109.92v.64h-.07v-.64h.08"></path><path class="cls-7" d="M263.1,109.91v.64H263v-.64h.08"></path><path class="cls-7" d="M263,109.9v.64l-.08,0v-.63l.08,0"></path><path class="cls-7" d="M262.94,109.88v.63a.29.29,0,0,1-.1,0v-.63l.1,0"></path><path class="cls-7" d="M262.84,109.85v.63l-.11,0a.41.41,0,0,1-.24-.33v-.64a.39.39,0,0,0,.24.33l.11.06"></path></g></g></g></g><g class="cls-3"><path class="cls-7" d="M253.52,99.28v.63a.55.55,0,0,0,0-.18,2.73,2.73,0,0,0-.43-.94,7.42,7.42,0,0,0-2.4-2.08l-.25-.14a6,6,0,0,0-3.55-1A4.76,4.76,0,0,0,243.51,98a1.29,1.29,0,0,0-.2.7V98a1.34,1.34,0,0,1,.2-.69A4.82,4.82,0,0,1,246.87,95a6,6,0,0,1,3.55,1l.25.14a7.44,7.44,0,0,1,2.4,2.09,2.42,2.42,0,0,1,.43.94A.55.55,0,0,1,253.52,99.28Z"></path><path class="cls-7" d="M265.12,105.2v.64c0-.69-.91-1.29-1.73-1.8l-.24-.14a13.3,13.3,0,0,0-3.61-1.38,10.53,10.53,0,0,0-1.62-.25,3.32,3.32,0,0,0-3.75,2.77v-.63a3.32,3.32,0,0,1,3.75-2.77,10.53,10.53,0,0,1,1.62.24,12.87,12.87,0,0,1,3.61,1.39l.24.14C264.21,103.91,265.12,104.51,265.12,105.2Z"></path><path class="cls-33" d="M265.11,105.84a.82.82,0,0,1,0,.26v-.64a.8.8,0,0,0,.05-.26C265.11,105.4,265.11,105.65,265.11,105.84Z"></path><g class="cls-34"><path class="cls-42" d="M253.5,99.1c.32,1.49-3.37,2.36-5.47,2.15l-.74-.11a6.08,6.08,0,0,1-2.16-.74c-1.4-.81-2.22-2.08-1.62-3.05A4.82,4.82,0,0,1,246.87,95a6,6,0,0,1,3.55,1l.25.14a7.44,7.44,0,0,1,2.4,2.09A2.42,2.42,0,0,1,253.5,99.1Z"></path></g><g class="cls-36"><path class="cls-43" d="M265.07,105.46c-.32,1-2.61,1.64-4.1,2a8.28,8.28,0,0,1-5.28-.93,2.81,2.81,0,0,1-1.27-1.24,4.28,4.28,0,0,1-.2-.44c-.38-1.21,1.11-3.35,3.69-3.17a10.53,10.53,0,0,1,1.62.24,12.87,12.87,0,0,1,3.61,1.39l.24.14C264.3,104,265.34,104.65,265.07,105.46Z"></path></g><path class="cls-1" d="M263.38,103.41l-.24-.14a12.87,12.87,0,0,0-3.61-1.39,10.53,10.53,0,0,0-1.62-.24c-2.58-.18-4.07,2-3.69,3.17a4.28,4.28,0,0,0,.2.44,2.81,2.81,0,0,0,1.27,1.24,8.28,8.28,0,0,0,5.28.93c1.49-.32,3.78-1,4.1-2C265.34,104.65,264.3,104,263.38,103.41Z"></path><path class="cls-1" d="M253.07,98.16a7.44,7.44,0,0,0-2.4-2.09l-.25-.14a6,6,0,0,0-3.55-1,4.82,4.82,0,0,0-3.36,2.39c-.6,1,.22,2.24,1.62,3.05a6.08,6.08,0,0,0,2.16.74l.74.11c2.1.21,5.79-.66,5.47-2.15A2.42,2.42,0,0,0,253.07,98.16Z"></path><path class="cls-1" d="M253.07,98.16a7.44,7.44,0,0,0-2.4-2.09l-.25-.14a6,6,0,0,0-3.55-1,4.82,4.82,0,0,0-3.36,2.39c-.6,1,.22,2.24,1.62,3.05a6.08,6.08,0,0,0,2.16.74l.74.11c2.1.21,5.79-.66,5.47-2.15A2.42,2.42,0,0,0,253.07,98.16Z"></path><path class="cls-1" d="M263.38,103.41l-.24-.14a12.87,12.87,0,0,0-3.61-1.39,10.53,10.53,0,0,0-1.62-.24c-2.58-.18-4.07,2-3.69,3.17a4.28,4.28,0,0,0,.2.44,2.81,2.81,0,0,0,1.27,1.24,8.28,8.28,0,0,0,5.28.93c1.49-.32,3.78-1,4.1-2C265.34,104.65,264.3,104,263.38,103.41Z"></path><path class="cls-7" d="M267.63,105.7c0-.07-.05-.14-.17-.23q-.51-.43-1-.84a26.1,26.1,0,0,0-2.83-1.95,10.75,10.75,0,0,0-3.11-1.26c-.32-.07-.65-.13-1-.18l-1.56-.23a2.07,2.07,0,0,1-1.05-.33l-.87-.5-.86-.5c-.29-.17-.55-.35-.59-.63s-.25-.58-.39-.87a5.33,5.33,0,0,0-.31-.57,6.47,6.47,0,0,0-2.17-1.78,32.9,32.9,0,0,0-3.4-1.64l-1.45-.61a.79.79,0,0,0-.8,0c-.19.1-1.42.82-1.45,1.08a.14.14,0,0,1,0,.09l-.52.57a9.39,9.39,0,0,0-1.22,1.42,2.09,2.09,0,0,0-.35,1.39,1.94,1.94,0,0,1,0-.24v.63a2.24,2.24,0,0,0,.82,1.61,7.35,7.35,0,0,0,1.24.91,10.16,10.16,0,0,0,1.91.82,7.52,7.52,0,0,0,2.79.36,11.84,11.84,0,0,0,2.08-.29c.71-.16,1.41-.35,2.11-.53a1.44,1.44,0,0,1,.94,0,2,2,0,0,1,.33.15,1.74,1.74,0,0,1,.26.19c-.28.37-.58.75-.85,1.14a3,3,0,0,0-.49,1.2,2,2,0,0,0,0,.42c0-.06,0-.12,0-.18V105a2,2,0,0,0,.65,1.37,6.45,6.45,0,0,0,1.43,1.1,10,10,0,0,0,1.58.72,8.62,8.62,0,0,0,4.76.24,23,23,0,0,0,2.44-.71l1-.3a.37.37,0,0,1,.15,0,6.93,6.93,0,0,0,1.85-.85c.15-.09.22-.16.22-.23v-.64ZM248,101.25l-.74-.11a6.08,6.08,0,0,1-2.16-.74c-1.4-.81-2.22-2.08-1.62-3.05A4.82,4.82,0,0,1,246.87,95a6,6,0,0,1,3.55,1l.25.14a7.44,7.44,0,0,1,2.4,2.09,2.42,2.42,0,0,1,.43.94C253.82,100.59,250.13,101.46,248,101.25Zm17,4.21c-.32,1-2.61,1.64-4.1,2a8.28,8.28,0,0,1-5.28-.93,2.81,2.81,0,0,1-1.27-1.24,4.28,4.28,0,0,1-.2-.44c-.38-1.21,1.11-3.35,3.69-3.17a10.53,10.53,0,0,1,1.62.24,12.87,12.87,0,0,1,3.61,1.39l.24.14C264.3,104,265.34,104.65,265.07,105.46Z"></path></g><path class="cls-4" d="M267.46,105.47q-.51-.43-1-.84a26.1,26.1,0,0,0-2.83-1.95,10.75,10.75,0,0,0-3.11-1.26c-.32-.07-.65-.13-1-.18l-1.56-.23a2.07,2.07,0,0,1-1.05-.33l-.87-.5-.86-.5c-.29-.17-.55-.35-.59-.63s-.25-.58-.39-.87a5.33,5.33,0,0,0-.31-.57,6.47,6.47,0,0,0-2.17-1.78,32.9,32.9,0,0,0-3.4-1.64l-1.45-.61a.79.79,0,0,0-.8,0c-.19.1-1.42.82-1.45,1.08a.14.14,0,0,1,0,.09l-.52.57a9.39,9.39,0,0,0-1.22,1.42,2.09,2.09,0,0,0-.35,1.39.07.07,0,0,1,0,0,1.38,1.38,0,0,0,.08.29v0a2.1,2.1,0,0,0,.15.3l0,.06a2.64,2.64,0,0,0,.21.29l0,0,.28.3h0a6.84,6.84,0,0,0,1.24.91l.22.12a10.46,10.46,0,0,0,1.69.71,7.52,7.52,0,0,0,2.79.35,9.28,9.28,0,0,0,1.06-.1c.35-.05.69-.11,1-.19.71-.16,1.41-.35,2.11-.53a2,2,0,0,1,.48-.06,1.18,1.18,0,0,1,.46.09l.33.15a1.89,1.89,0,0,1,.27.2h0a.42.42,0,0,1,.11.13l0,0a.29.29,0,0,1,0,.09.38.38,0,0,1-.1.27l-.06.09c-.28.37-.58.75-.85,1.14a3,3,0,0,0-.49,1.2,1.91,1.91,0,0,0,.63,1.62,6.66,6.66,0,0,0,1.43,1.09,10,10,0,0,0,1.58.72,8.62,8.62,0,0,0,4.76.25c.86-.18,1.64-.46,2.44-.71l1-.31a.8.8,0,0,1,.15,0,6.79,6.79,0,0,0,1.85-.84C267.69,105.76,267.7,105.66,267.46,105.47ZM248,101.25l-.74-.11a6.08,6.08,0,0,1-2.16-.74c-1.4-.81-2.22-2.08-1.62-3.05A4.82,4.82,0,0,1,246.87,95a6,6,0,0,1,3.55,1l.25.14a7.44,7.44,0,0,1,2.4,2.09,2.42,2.42,0,0,1,.43.94C253.82,100.59,250.13,101.46,248,101.25Zm17,4.21c-.32,1-2.61,1.64-4.1,2a8.28,8.28,0,0,1-5.28-.93,2.81,2.81,0,0,1-1.27-1.24,4.28,4.28,0,0,1-.2-.44c-.38-1.21,1.11-3.35,3.69-3.17a10.53,10.53,0,0,1,1.62.24,12.87,12.87,0,0,1,3.61,1.39l.24.14C264.3,104,265.34,104.65,265.07,105.46Z"></path></g><path class="cls-19" d="M220.83,134.73,193.58,119c-5.23-3-9.49-.6-9.5,5.42s4.21,13.33,9.44,16.35l27.31,15.76Z"></path><g class="cls-3"><g class="cls-44"><path class="cls-8" d="M193.75,129c-1.06-.62-1.77-.3-1.77.69a3.86,3.86,0,0,0,1.44,2.61,2.64,2.64,0,0,1,1,1.84c0,.64-.42.83-1.15.41A4.61,4.61,0,0,1,192,133.4l-.18.58a4.94,4.94,0,0,0,1.4,1.21c1.29.75,1.92.27,1.92-.7a3.83,3.83,0,0,0-1.39-2.66c-.76-.76-1.09-1.25-1.09-1.84,0-.42.29-.77,1-.34a4,4,0,0,1,1,.89l.2-.55a4.51,4.51,0,0,0-1.21-1"></path><polyline class="cls-8" points="200.21 132.82 199.5 132.41 199.49 135.04 196.84 133.51 196.85 130.88 196.15 130.47 196.13 136.76 196.83 137.17 196.84 134.22 199.49 135.75 199.48 138.7 200.19 139.11 200.21 132.82"></polyline><path class="cls-8" d="M203.6,140.52a4.22,4.22,0,0,1-1.74-3.56c0-1.38.59-2.29,1.76-1.61a4.24,4.24,0,0,1,1.74,3.56c0,1.43-.64,2.25-1.76,1.61m.05-5.81c-1.46-.85-2.54-.17-2.55,1.83a5.43,5.43,0,0,0,2.45,4.61c1.4.81,2.55.32,2.55-1.84a5.35,5.35,0,0,0-2.45-4.6"></path><path class="cls-8" d="M208.31,140.67a3.08,3.08,0,0,1-.58-.4v-2.45a4.23,4.23,0,0,1,.67.33,2.31,2.31,0,0,1,1.29,2c0,.88-.53,1-1.38.55m.08-3.17a9.66,9.66,0,0,0-1.36-.67l0,6.22.71.4v-2.52a4,4,0,0,0,.57.38c.7.41,1.3.53,1.68.28s.42-.53.42-1.1a3,3,0,0,0-.47-1.59,4.28,4.28,0,0,0-1.53-1.4"></path></g></g><g class="cls-45"><path class="cls-28" d="M223.88,126.81c-2.11-1.22-3.82-.25-3.82,2.18L220,146l0,16.69a8.36,8.36,0,0,0,3.8,6.58l29.36,17c2.1,1.21,3.82.24,3.82-2.18L257,167.2l.05-16.86a8.39,8.39,0,0,0-3.8-6.59l-14.68-8.47Z"></path><path class="cls-25" d="M220,162.71a8.36,8.36,0,0,0,3.8,6.58l29.36,17c2.1,1.21,3.82.24,3.82-2.18L257,167.2l.05-16.86a8.39,8.39,0,0,0-3.8-6.59Z"></path><g class="cls-3"><polygon class="cls-46" points="227.84 153.22 235.04 149.03 247.71 156.34 240.5 160.53 227.84 153.22"></polygon><polygon class="cls-46" points="240.5 160.53 247.71 156.34 247.7 158.68 240.5 162.86 240.5 160.53"></polygon><polygon class="cls-46" points="240.5 162.86 247.7 158.68 255.58 163.22 248.38 167.41 240.5 162.86"></polygon><polygon class="cls-8" points="242.07 161.43 249.27 157.25 249.27 158.5 242.07 162.68 242.07 161.43"></polygon><polygon class="cls-47" points="240.51 157.44 247.71 153.26 247.71 156.34 240.5 160.53 240.51 157.44"></polygon><polygon class="cls-8" points="242.08 159.42 249.28 155.24 249.27 157.25 242.07 161.43 242.08 159.42"></polygon><polygon class="cls-46" points="246.82 164.17 254.02 159.99 254.01 161.24 246.81 165.43 246.82 164.17"></polygon><polygon class="cls-8" points="242.07 162.68 249.27 158.5 254.01 161.24 246.81 165.43 242.07 162.68"></polygon><polygon class="cls-46" points="242.07 161.43 249.27 157.25 254.02 159.99 246.82 164.17 242.07 161.43"></polygon><polygon class="cls-47" points="242.07 161.43 242.08 159.42 246.82 162.16 246.82 164.17 242.07 161.43"></polygon><polygon class="cls-47" points="242.08 159.42 249.28 155.24 254.02 157.98 246.82 162.16 242.08 159.42"></polygon><polygon class="cls-47" points="246.82 162.16 254.02 157.98 254.02 159.99 246.82 164.17 246.82 162.16"></polygon><path class="cls-48" d="M240.51,157.44l7.88,4.55v5.42l-7.88-4.55v-5.42Zm6.31,6.73v-2l-4.74-2.75v3.26l4.74,2.75v-1.26"></path><polygon class="cls-46" points="246.82 164.17 246.81 165.43 242.07 162.68 242.07 161.43 246.82 164.17"></polygon><polygon class="cls-8" points="248.38 165.08 255.58 160.89 255.58 163.22 248.38 167.41 248.38 165.08"></polygon><polygon class="cls-8" points="248.39 161.99 255.59 157.81 255.58 160.89 248.38 165.08 248.39 161.99"></polygon><polygon class="cls-8" points="240.51 157.44 247.71 153.26 255.59 157.81 248.39 161.99 240.51 157.44"></polygon><path class="cls-46" d="M267.39,179.69l-7.2,4.18a2,2,0,0,0,.83-1.81l7.2-4.18A2,2,0,0,1,267.39,179.69Z"></path><polygon class="cls-46" points="248.38 165.08 255.58 160.89 268.25 168.2 261.04 172.39 248.38 165.08"></polygon><path class="cls-46" d="M248.38,165.08,261,172.39l0,9.67c0,1.79-1.27,2.51-2.82,1.62l-27.58-15.92a6.19,6.19,0,0,1-2.8-4.86l0-9.68,12.66,7.31v2.33l7.88,4.55Z"></path><polygon class="cls-46" points="261.04 172.39 268.25 168.2 268.22 177.88 261.02 182.06 261.04 172.39"></polygon><path class="cls-9" d="M258.27,158.79a6.22,6.22,0,0,1,2.8,4.87l0,8.73-12.66-7.31V162l-7.88-4.55v3.09l-12.66-7.31,0-8.73c0-1.79,1.27-2.51,2.82-1.62Z"></path><path class="cls-10" d="M265.47,154.61l-27.58-15.92a2,2,0,0,0-2-.2l-7.2,4.19a2,2,0,0,1,2,.19l27.58,15.92a6.22,6.22,0,0,1,2.8,4.87l0,8.73,7.2-4.19,0-8.73A6.22,6.22,0,0,0,265.47,154.61Z"></path></g></g><path class="cls-19" d="M220.83,194.37l-27.25-15.73c-5.23-3-9.49-.6-9.5,5.41s4.21,13.33,9.44,16.35l27.31,15.76Z"></path><g class="cls-3"><g class="cls-49"><path class="cls-8" d="M193.75,188.63c-1.06-.61-1.77-.29-1.77.69a3.88,3.88,0,0,0,1.44,2.62,2.62,2.62,0,0,1,1,1.84c0,.63-.42.82-1.15.41a4.78,4.78,0,0,1-1.26-1.14l-.18.58a5.28,5.28,0,0,0,1.4,1.21c1.29.74,1.92.26,1.92-.71a3.85,3.85,0,0,0-1.39-2.66c-.76-.76-1.09-1.25-1.09-1.83,0-.43.29-.78,1-.35a3.8,3.8,0,0,1,1,.9l.2-.55a4.34,4.34,0,0,0-1.21-1"></path><polyline class="cls-8" points="200.21 192.46 199.5 192.05 199.49 194.69 196.84 193.16 196.85 190.52 196.15 190.12 196.13 196.4 196.83 196.81 196.84 193.86 199.49 195.39 199.48 198.34 200.19 198.75 200.21 192.46"></polyline><path class="cls-8" d="M203.6,200.16a4.2,4.2,0,0,1-1.74-3.56c0-1.38.59-2.28,1.76-1.61a4.25,4.25,0,0,1,1.74,3.57c0,1.42-.64,2.24-1.76,1.6m.05-5.81c-1.46-.85-2.54-.16-2.55,1.83a5.43,5.43,0,0,0,2.45,4.61c1.4.81,2.55.33,2.55-1.84a5.35,5.35,0,0,0-2.45-4.6"></path><path class="cls-8" d="M208.31,200.32a4.43,4.43,0,0,1-.58-.4v-2.45a3,3,0,0,1,.67.33,2.31,2.31,0,0,1,1.29,2c0,.87-.53,1-1.38.55m.08-3.18a9.66,9.66,0,0,0-1.36-.67l0,6.22.71.4v-2.51a4,4,0,0,0,.57.38c.7.4,1.3.52,1.68.27s.42-.52.42-1.1a3,3,0,0,0-.47-1.59,4.28,4.28,0,0,0-1.53-1.4"></path></g></g><g class="cls-50"><path class="cls-28" d="M223.88,183.32c-2.11-1.22-3.82-.25-3.82,2.18l-.05,17,0,16.69a8.36,8.36,0,0,0,3.8,6.58l29.36,16.95c2.1,1.21,3.82.24,3.82-2.18l.05-16.86.05-16.86a8.4,8.4,0,0,0-3.8-6.59l-14.68-8.47Z"></path><path class="cls-25" d="M220,219.22a8.36,8.36,0,0,0,3.8,6.58l29.36,16.95c2.1,1.21,3.82.24,3.82-2.18l.05-16.86.05-16.86a8.4,8.4,0,0,0-3.8-6.59Z"></path><path class="cls-15" d="M274.48,219.67h0l-21.4-12.44a.89.89,0,0,0-.86.09s-18.09,9.13-23.81,13.75a3,3,0,0,0-1.2,2.06.86.86,0,0,0,.35.77L249,236.34a.27.27,0,0,1-.08-.07.77.77,0,0,0,.93,0l23.82-13.75a2.63,2.63,0,0,0,1.19-2.07A.83.83,0,0,0,274.48,219.67Z"></path><g class="cls-3"><path class="cls-19" d="M253.08,207.23a.89.89,0,0,0-.86.09s-18.09,9.13-23.81,13.75a3,3,0,0,0-1.2,2.06.86.86,0,0,0,.35.77L249,236.34a.82.82,0,0,1-.35-.77c0-.75.89-1.48,1.58-1.82,8.3-4.05,12.25-9.44,23.43-14a1,1,0,0,1,.85-.09Z"></path><path class="cls-51" d="M247.34,222s7.42.19,25.62-3.18l-2.08-1.21-12.77-7.42-4.55-2.64C249.73,213.22,247.34,222,247.34,222Z"></path><polygon class="cls-51" points="255.11 208.42 270.16 217.16 250.2 219.82 255.11 208.42"></polygon><path class="cls-51" d="M267.7,215.73l-11.13-6.47C255.72,212.53,259.23,216.41,267.7,215.73Z"></path></g><path class="cls-51" d="M256.86,209.43c-.32,3,3,6.25,10.25,6Z"></path><polygon class="cls-51" points="251.67 224.31 246.89 227.48 247.56 229.88 251.31 230.23 256.24 227.08 251.67 224.31"></polygon><path class="cls-51" d="M254.87,228l1.37-.88-4.57-2.77-1.12.74Q252.68,226.53,254.87,228Z"></path><path class="cls-10" d="M274,216h0l-21.4-12.44a.84.84,0,0,0-.85.08s-18.1,9.14-23.82,13.75a3,3,0,0,0-1.19,2.07.83.83,0,0,0,.35.77l21.4,12.44-.08-.07a.78.78,0,0,0,.93,0l23.82-13.75a2.63,2.63,0,0,0,1.2-2.07A.83.83,0,0,0,274,216Z"></path><g class="cls-3"><path class="cls-9" d="M252.6,203.53a.84.84,0,0,0-.85.08s-18.1,9.14-23.82,13.75a3,3,0,0,0-1.19,2.07.83.83,0,0,0,.35.77l21.4,12.44a.88.88,0,0,1-.35-.77c0-.76.9-1.49,1.58-1.82,8.31-4.06,12.25-9.45,23.43-14,.36-.14.64-.21.86-.08Z"></path><path class="cls-52" d="M246.86,218.27s7.43.18,25.63-3.19l-2.09-1.21-12.76-7.42-4.55-2.64C249.25,209.52,246.86,218.27,246.86,218.27Z"></path><polygon class="cls-53" points="254.64 204.71 269.69 213.46 249.72 216.12 254.64 204.71"></polygon><path class="cls-54" d="M267.22,212l-11.12-6.46C255.24,208.83,258.76,212.7,267.22,212Z"></path></g><path class="cls-53" d="M256.39,205.73c-.33,3,2.95,6.24,10.24,6Z"></path><polygon class="cls-53" points="251.19 220.6 246.41 223.77 247.08 226.17 250.84 226.52 255.76 223.37 251.19 220.6"></polygon><path class="cls-52" d="M254.39,224.25l1.38-.88-4.58-2.77-1.12.74Q252.22,222.84,254.39,224.25Z"></path><path class="cls-15" d="M274.48,212.37h0l-21.4-12.44a.85.85,0,0,0-.86.08s-18.09,9.14-23.81,13.76a3,3,0,0,0-1.2,2.06.88.88,0,0,0,.35.77L249,229l-.08-.07a.78.78,0,0,0,.93,0l23.82-13.75a2.59,2.59,0,0,0,1.19-2.06A.82.82,0,0,0,274.48,212.37Z"></path><g class="cls-3"><path class="cls-19" d="M253.08,199.93a.85.85,0,0,0-.86.08s-18.09,9.14-23.81,13.76a3,3,0,0,0-1.2,2.06.88.88,0,0,0,.35.77L249,229a.83.83,0,0,1-.35-.77c0-.76.89-1.49,1.58-1.82,8.3-4.06,12.25-9.45,23.43-14,.36-.14.64-.21.85-.08Z"></path><path class="cls-55" d="M247.34,214.67s7.42.18,25.62-3.19l-2.08-1.21-12.77-7.41-4.55-2.65C249.73,205.92,247.34,214.67,247.34,214.67Z"></path><polygon class="cls-15" points="255.11 201.11 270.16 209.86 250.2 212.52 255.11 201.11"></polygon><path class="cls-19" d="M267.7,208.43,256.57,202C255.72,205.23,259.23,209.1,267.7,208.43Z"></path></g><path class="cls-15" d="M256.86,202.13c-.32,3,3,6.24,10.25,6Z"></path><polygon class="cls-15" points="251.67 217 246.89 220.17 247.56 222.57 251.31 222.92 256.24 219.78 251.67 217"></polygon><path class="cls-55" d="M254.87,220.65l1.37-.88L251.67,217l-1.12.75Q252.68,219.24,254.87,220.65Z"></path></g><g class="cls-3"><polygon class="cls-46" points="154.27 247.57 160.59 243.9 171.69 250.31 165.37 253.98 154.27 247.57"></polygon><polygon class="cls-46" points="165.37 253.98 171.69 250.31 171.68 252.36 165.37 256.02 165.37 253.98"></polygon><polygon class="cls-46" points="165.37 256.02 171.68 252.36 178.59 256.34 172.28 260.01 165.37 256.02"></polygon><polygon class="cls-8" points="166.75 254.77 173.06 251.1 173.06 252.2 166.74 255.87 166.75 254.77"></polygon><polygon class="cls-47" points="165.38 251.27 171.69 247.6 171.69 250.31 165.37 253.98 165.38 251.27"></polygon><polygon class="cls-8" points="166.75 253.01 173.06 249.34 173.06 251.1 166.75 254.77 166.75 253.01"></polygon><polygon class="cls-46" points="170.91 257.18 177.22 253.51 177.22 254.6 170.91 258.27 170.91 257.18"></polygon><polygon class="cls-8" points="166.74 255.87 173.06 252.2 177.22 254.6 170.91 258.27 166.74 255.87"></polygon><polygon class="cls-46" points="166.75 254.77 173.06 251.1 177.22 253.51 170.91 257.18 166.75 254.77"></polygon><polygon class="cls-47" points="166.75 254.77 166.75 253.01 170.91 255.41 170.91 257.18 166.75 254.77"></polygon><polygon class="cls-47" points="166.75 253.01 173.06 249.34 177.23 251.75 170.91 255.41 166.75 253.01"></polygon><polygon class="cls-47" points="170.91 255.41 177.23 251.75 177.22 253.51 170.91 257.18 170.91 255.41"></polygon><path class="cls-48" d="M165.38,251.27l6.91,4V260l-6.91-4v-4.75Zm5.53,5.91v-1.76L166.75,253v2.86l4.17,2.4v-1.09"></path><polygon class="cls-46" points="170.91 257.18 170.91 258.27 166.74 255.87 166.75 254.77 170.91 257.18"></polygon><polygon class="cls-8" points="172.28 257.97 178.59 254.3 178.59 256.34 172.28 260.01 172.28 257.97"></polygon><polygon class="cls-8" points="172.29 255.26 178.6 251.59 178.59 254.3 172.28 257.97 172.29 255.26"></polygon><polygon class="cls-8" points="165.38 251.27 171.69 247.6 178.6 251.59 172.29 255.26 165.38 251.27"></polygon><path class="cls-46" d="M189,270.78l-6.32,3.67a1.75,1.75,0,0,0,.73-1.59l6.31-3.67A1.74,1.74,0,0,1,189,270.78Z"></path><polygon class="cls-46" points="172.28 257.97 178.59 254.3 189.69 260.71 183.38 264.38 172.28 257.97"></polygon><path class="cls-46" d="M172.28,258l11.1,6.41,0,8.48c0,1.56-1.12,2.2-2.48,1.42l-24.17-14a5.4,5.4,0,0,1-2.46-4.26l0-8.49,11.1,6.41v2l6.91,4Z"></path><polygon class="cls-46" points="183.38 264.38 189.69 260.71 189.67 269.19 183.36 272.86 183.38 264.38"></polygon><path class="cls-9" d="M181,252.46a5.42,5.42,0,0,1,2.45,4.26l0,7.66L172.28,258v-2.71l-6.91-4V254l-11.1-6.41,0-7.65c0-1.57,1.12-2.2,2.48-1.42Z"></path><path class="cls-10" d="M187.26,248.79l-24.18-14a1.74,1.74,0,0,0-1.75-.17L155,238.33a1.75,1.75,0,0,1,1.75.17l24.18,14a5.42,5.42,0,0,1,2.45,4.26l0,7.66,6.31-3.67,0-7.66A5.42,5.42,0,0,0,187.26,248.79Z"></path></g><path class="cls-4" d="M189.22,261l-2.64,1.47c-.4,2.7.12,5.24.23,8.18s0,5-2.8,6.53c-3.17,1.78-5.23.21-8.37-1-6.33-2.49-11.67-.77-17.91,1.28a44.64,44.64,0,0,1-5.56,1.59c-4.69.88-12.64.63-11.43-7.88.59-4.09,4-7.48,6.78-10.18a41.54,41.54,0,0,0,6.73-7.5v-6.1c-1.4,9.93-14.09,13.82-15.82,24.09-1.37,8.15,6.58,10.94,13.39,9.87,5.85-.92,11.28-4.39,17.28-4.38,5,0,9.51,4.46,14.55,3.35C192.36,278.38,187.38,266.68,189.22,261Z"></path><path class="cls-19" d="M94.06,299.27c2.55.65,19.49-5.15,20.85-1.56,1.19,3.15-3.14,6.06-5.45,6.63-5,1.22-8.79,3.74-10.82,4.16-1.51.32-3.47.53-4.67-.66C92.52,306.42,92.65,301.14,94.06,299.27Z"></path><path class="cls-21" d="M98.64,307.63c2-.42,5.77-2.94,10.82-4.17,1.94-.47,5.28-2.59,5.62-5.12.45,2.9-3.46,5.47-5.62,6-5,1.22-8.79,3.74-10.82,4.16-1.51.32-3.47.53-4.67-.66a2.85,2.85,0,0,1-.66-1.2A6,6,0,0,0,98.64,307.63Z"></path><path class="cls-21" d="M109.5,296.5a4.82,4.82,0,0,1,2.43,2.87c.12.57-.75.81-.87.24a3.9,3.9,0,0,0-2.85-2.79A1.2,1.2,0,0,1,109.5,296.5Z"></path><path class="cls-21" d="M107.18,296.84a4.91,4.91,0,0,1,2.47,2.92c.12.56-.74.81-.86.24a3.92,3.92,0,0,0-2.86-2.79A1.14,1.14,0,0,1,107.18,296.84Z"></path><path class="cls-21" d="M104.9,297.28a4.72,4.72,0,0,1,2.49,2.91c.12.56-.75.81-.87.24a3.89,3.89,0,0,0-2.85-2.79A1.11,1.11,0,0,1,104.9,297.28Z"></path><path class="cls-56" d="M98,300.09a5,5,0,0,0,3.17-1c.19-6,1.27-33.39,5.07-49.68,1.78-7.61,4.1-26.64,4.13-43.92H93.89c.19,1.56.4,3.14.61,4.76,1.51,11.37,3.21,24.26-.29,39-2.87,12.12-.69,42.81-.13,49.95A10.29,10.29,0,0,0,98,300.09Z"></path><path class="cls-19" d="M111.47,309c2.55.66,19.49-5.15,20.85-1.55,1.19,3.15-3.14,6.06-5.45,6.62-5.05,1.23-8.79,3.75-10.82,4.17-1.51.32-3.47.53-4.67-.66C109.93,316.2,110.06,310.92,111.47,309Z"></path><path class="cls-21" d="M116.05,317.41c2-.43,5.77-3,10.82-4.17,1.94-.47,5.28-2.59,5.61-5.12.45,2.9-3.45,5.47-5.61,6-5.05,1.23-8.79,3.75-10.82,4.17-1.51.32-3.47.53-4.67-.66a2.85,2.85,0,0,1-.66-1.2A6,6,0,0,0,116.05,317.41Z"></path><path class="cls-21" d="M126.9,306.28a4.8,4.8,0,0,1,2.44,2.87c.12.57-.75.81-.87.24a3.9,3.9,0,0,0-2.85-2.79A1.17,1.17,0,0,1,126.9,306.28Z"></path><path class="cls-21" d="M124.59,306.62a4.91,4.91,0,0,1,2.47,2.92c.12.56-.75.8-.86.24a3.9,3.9,0,0,0-2.86-2.79A1.13,1.13,0,0,1,124.59,306.62Z"></path><path class="cls-21" d="M122.31,307.06A4.72,4.72,0,0,1,124.8,310c.12.56-.75.8-.87.24a3.87,3.87,0,0,0-2.85-2.79A1.09,1.09,0,0,1,122.31,307.06Z"></path><path class="cls-56" d="M115.29,310.22a5,5,0,0,0,3.17-1c.2-6,1.27-33.38,5.07-49.67,2.43-10.4,5.39-39.17,3.55-57.87-4.55,1.16-12.35,3.08-16.66,3.78a123.85,123.85,0,0,0,1.39,14.92c1.5,11.38,3.21,24.27-.28,39-2.88,12.13-.69,42.82-.13,50,.71.89,2.39.89,3.89.89Z"></path><path class="cls-19" d="M126.13,152.27c0-11.83-14.65-21.44-27.58-19.14a8.39,8.39,0,0,0-4,1.68,11,11,0,0,0-3.63,7.3,55.11,55.11,0,0,0,1.68,20.54c2.2,8.44,4.4,19.51,2.18,24.56-4,9.14-7.18,30.9-6.84,41.24a51,51,0,0,0,44.55,3.85c-.25-3.66-1.78-27.59-8.17-46.31C123.49,168.89,126.13,155.17,126.13,152.27Z"></path><path class="cls-56" d="M114.62,107.67a11.73,11.73,0,0,0-8.83-1.21,15.39,15.39,0,0,0-9.9,8.49A14,14,0,0,0,96,127.34c-.06.14,7.23,16.36,8.79,18.22A55.64,55.64,0,0,0,115.5,143c-.75-2.15-1.42-6.57-.47-8.61a7.27,7.27,0,0,0,5-.61c3.55-2.17,3.55-9.67,3.22-13.14A17.15,17.15,0,0,0,114.62,107.67Z"></path><path class="cls-56" d="M159.71,138.4c6.44-1.23,13.59-3.9,19.71-6.26a38.72,38.72,0,0,1,8-2.64,17.13,17.13,0,0,1,3.92,0,14.65,14.65,0,0,0,5.41-.74.41.41,0,0,1,.33,0,.48.48,0,0,1,.65.31c.38,1.28-.58,2.13-1.68,2.54a19.23,19.23,0,0,1-3.35.89c-.47,3-2.61,4.07-3.37,4.18-1.13.17-2.11.73-3.24.87a5.63,5.63,0,0,1-3.23-.68c-5.5,3.33-22.23,11.25-22.23,11.25C160.4,147,159.71,138.4,159.71,138.4Z"></path><path class="cls-19" d="M163.17,135.8a189.23,189.23,0,0,1-41.36,12c-4.47.65-5.44,7.28-4.29,10.32,1.41,3.75,5.14,2.07,8.16,1.35,13.9-3.27,42.24-11.68,42.18-12.18C167.45,144.09,165.22,138.29,163.17,135.8Z"></path><path class="cls-5" d="M115.58,130.08a5.05,5.05,0,0,1-3.86.24,3.2,3.2,0,0,1-1.83-3.37,2.79,2.79,0,0,1,2.53-2.54c1.54,0,2.36,1.69,2.72,3,.38.13.14-2.67-.11-3.57a2.73,2.73,0,0,1,.76-3,1.23,1.23,0,0,1,.52-.27c2.51-.62,4.9-1,7.45-2.25,1.6-.94.65-8.72-2.82-11.37a17,17,0,0,0-5-2.62,20.24,20.24,0,0,0-12.39,0A18.88,18.88,0,0,0,92,114.69c-2.29,5.44.64,11.11-2.35,16.31a16.15,16.15,0,0,0-.48,15.47,1.22,1.22,0,0,1-.11,1.27,9.74,9.74,0,0,0,1.81,12.9,9.57,9.57,0,0,0,4.34,1.87,1.31,1.31,0,0,1,.27.12c1.21,7.45,9.51,9.64,15.92,7.27a9,9,0,0,0,6-7.17c.56-3.35.46-6.81,1.35-10.11a7.69,7.69,0,0,1,6.47-5.46C128.78,140.79,115.68,134,115.58,130.08Z"></path><g class="cls-3"><polygon class="cls-57" points="244.35 296 244.34 299.19 243.16 299.86 243.17 296.66 244.35 296"></polygon><polygon class="cls-57" points="245.61 296.75 245.6 299.94 244.34 299.19 244.35 296 245.61 296.75"></polygon><polygon class="cls-58" points="245.61 296.75 245.6 299.94 244.4 300.62 244.41 297.43 245.61 296.75"></polygon><path class="cls-57" d="M237.52,301.07v-3.19a1.23,1.23,0,0,1,.2-.65,2.09,2.09,0,0,1,.8-.69,4.13,4.13,0,0,1,2.12-.48,6.15,6.15,0,0,1,2.52.6v3.2a6.29,6.29,0,0,0-2.52-.61,4.13,4.13,0,0,0-2.12.48,2.09,2.09,0,0,0-.8.69A1.23,1.23,0,0,0,237.52,301.07Z"></path><path class="cls-58" d="M241.88,297.4v3.19a3.6,3.6,0,0,0-1-.24,1.68,1.68,0,0,0-.89.21c-.27.15-.41.33-.41.54v-3.19c0-.21.14-.39.41-.54a1.59,1.59,0,0,1,.89-.21A3,3,0,0,1,241.88,297.4Z"></path><polygon class="cls-57" points="241.88 297.4 241.87 300.59 239.75 301.79 239.76 298.6 241.88 297.4"></polygon><path class="cls-57" d="M239.53,301.1c0-.94,0-1.88,0-2.82v-.37a1.35,1.35,0,0,0,.22.69v3.19A1.46,1.46,0,0,1,239.53,301.1Z"></path><path class="cls-58" d="M243.33,298.73v3.2a.84.84,0,0,0-.24-.56v-3.19A.84.84,0,0,1,243.33,298.73Z"></path><path class="cls-57" d="M245.21,298.84V302a1.45,1.45,0,0,0-.16-.65,2.45,2.45,0,0,0-.64-.77v-3.19a2.45,2.45,0,0,1,.64.77A1.41,1.41,0,0,1,245.21,298.84Z"></path><path class="cls-58" d="M237.52,301.07v-3.19a.17.17,0,0,0,0,.07,1.57,1.57,0,0,0,.24.75q.22.38.48.75v3.19c-.17-.25-.33-.5-.48-.74a1.57,1.57,0,0,1-.24-.75A.22.22,0,0,1,237.52,301.07Z"></path><polygon class="cls-57" points="235.46 299.45 235.46 302.64 233.94 301.99 233.95 298.8 235.46 299.45"></polygon><polygon class="cls-58" points="243.09 298.18 243.08 301.37 240.5 302.84 240.51 299.64 243.09 298.18"></polygon><path class="cls-57" d="M243.33,298.73v3.2a1.21,1.21,0,0,1-.6.89v-3.19A1.21,1.21,0,0,0,243.33,298.73Z"></path><path class="cls-57" d="M232.93,303.53v-3.24a2,2,0,0,1,1-1.5V302a2,2,0,0,0-1,1.5Z"></path><path class="cls-57" d="M241,303.61c-.15-.26-.32-.52-.5-.77v-3.2a7.94,7.94,0,0,1,.5.78C241,301.48,241,302.55,241,303.61Z"></path><path class="cls-58" d="M234.85,303.62v-3.19a1.35,1.35,0,0,1,.6-1v3.19A1.44,1.44,0,0,0,234.85,303.62Z"></path><path class="cls-57" d="M234.85,303.62v-3.19a1.07,1.07,0,0,0,.37.74v3.19A1.05,1.05,0,0,1,234.85,303.62Z"></path><polygon class="cls-57" points="238.26 299.45 238.25 302.64 235.23 304.36 235.24 301.17 238.26 299.45"></polygon><path class="cls-57" d="M241.25,304.41a1.91,1.91,0,0,0-.25-.8c0-1.06,0-2.13,0-3.19a1.87,1.87,0,0,1,.25.79C241.25,302.28,241.25,303.34,241.25,304.41Z"></path><path class="cls-58" d="M239.27,301.29v3.19h0a1.7,1.7,0,0,0-.26-.79v-3.19a1.7,1.7,0,0,1,.26.79Z"></path><path class="cls-58" d="M232.93,303.53v-3.19a2,2,0,0,0,1,1.56v3.19A2.06,2.06,0,0,1,232.93,303.53Z"></path><polygon class="cls-58" points="239.01 300.49 239 303.68 236.49 305.11 236.5 301.91 239.01 300.49"></polygon><path class="cls-57" d="M239.26,304.48c0,.23-.17.44-.49.63,0-1.07,0-2.13,0-3.19.32-.19.49-.4.49-.63Z"></path><path class="cls-57" d="M237.69,305.37a3.55,3.55,0,0,1-1.2-.26v-3.2a3.35,3.35,0,0,0,1.2.27Z"></path><path class="cls-57" d="M238.77,305.11a2,2,0,0,1-1.08.26v-3.19a2.11,2.11,0,0,0,1.08-.26C238.78,303,238.77,304,238.77,305.11Z"></path><path class="cls-57" d="M246.32,295.39a16,16,0,0,0-14.52,0c-4,2.33-4,6.09,0,8.41a16,16,0,0,0,14.52,0C250.37,301.48,250.34,297.72,246.32,295.39Z"></path><path class="cls-59" d="M231.8,296.05a16,16,0,0,1,14.52,0c1.88,1.09,2.87,2.48,3,3.9.15-1.63-.84-3.31-3-4.56a16,16,0,0,0-14.52,0c-2.13,1.24-3.1,2.89-3,4.51C229,298.5,230,297.12,231.8,296.05Z"></path><polygon class="cls-57" points="233.94 301.9 233.93 305.1 232.75 305.76 232.76 302.57 233.94 301.9"></polygon><path class="cls-58" d="M241.05,302a2.26,2.26,0,0,1-.86.75,4,4,0,0,1-1,.39,6.25,6.25,0,0,1-2.58,0,7.36,7.36,0,0,1-1.37-.46l-1.17.66-1.27-.74,1.18-.67a1.7,1.7,0,0,1,0-3.11l1.51.66c-.71.6-.79,1.17-.23,1.72l3-1.72q-.25-.37-.48-.75a1.57,1.57,0,0,1-.24-.75,1.14,1.14,0,0,1,.19-.72,2.09,2.09,0,0,1,.8-.69,4.13,4.13,0,0,1,2.12-.48,6.15,6.15,0,0,1,2.52.6l1.18-.66,1.26.75-1.2.68a2.45,2.45,0,0,1,.64.77,1.35,1.35,0,0,1,.15.77,1.41,1.41,0,0,1-.3.72,2.27,2.27,0,0,1-.7.63l-1.47-.69c.66-.49.77-1,.36-1.45l-2.58,1.46a7.94,7.94,0,0,1,.5.78,1.87,1.87,0,0,1,.25.79A1.45,1.45,0,0,1,241.05,302Zm-3.35.18a2.11,2.11,0,0,0,1.08-.26c.33-.19.49-.41.49-.64a1.7,1.7,0,0,0-.26-.79l-2.51,1.42a3.35,3.35,0,0,0,1.2.27m2.06-3.58,2.12-1.2a3,3,0,0,0-1-.24,1.59,1.59,0,0,0-.89.21c-.27.15-.41.33-.41.54a1.35,1.35,0,0,0,.22.69"></path><path class="cls-57" d="M241.25,304.48v-.07c0-1.07,0-2.13,0-3.2v3.27Z"></path><path class="cls-57" d="M239,300.49a1.7,1.7,0,0,1,.26.79c0,.23-.16.45-.49.64a2.11,2.11,0,0,1-1.08.26,3.35,3.35,0,0,1-1.2-.27Z"></path><path class="cls-60" d="M252.29,299.63v3.2c0,1.94-1.29,3.88-3.84,5.37-5.14,3-13.49,3-18.67,0-2.6-1.5-3.9-3.48-3.89-5.44v-3.2c0,2,1.29,3.94,3.89,5.44,5.18,3,13.53,3,18.67,0C251,303.52,252.28,301.58,252.29,299.63Z"></path><path class="cls-58" d="M248.39,294.19c5.17,3,5.2,7.83.06,10.81s-13.49,3-18.67,0-5.19-7.82-.05-10.81S243.22,291.21,248.39,294.19Zm-16.54,9.61a16,16,0,0,0,14.52,0c4-2.32,4-6.08-.05-8.41a16,16,0,0,0-14.52,0c-4,2.33-4,6.09,0,8.41"></path><path class="cls-57" d="M240,297.37a1.59,1.59,0,0,1,.89-.21,3,3,0,0,1,1,.24l-2.12,1.2a1.35,1.35,0,0,1-.22-.69C239.54,297.7,239.68,297.52,240,297.37Z"></path></g><g class="cls-3"><polygon class="cls-57" points="241.48 291.61 241.47 294.8 240.29 295.46 240.3 292.27 241.48 291.61"></polygon><polygon class="cls-57" points="242.74 292.36 242.73 295.55 241.47 294.8 241.48 291.61 242.74 292.36"></polygon><polygon class="cls-58" points="242.74 292.36 242.73 295.55 241.53 296.23 241.54 293.04 242.74 292.36"></polygon><path class="cls-57" d="M234.65,296.68v-3.2a1.25,1.25,0,0,1,.19-.65,2.25,2.25,0,0,1,.8-.68,4.07,4.07,0,0,1,2.13-.48,6.19,6.19,0,0,1,2.52.6v3.19a6.19,6.19,0,0,0-2.52-.6,4.17,4.17,0,0,0-2.13.48,2.17,2.17,0,0,0-.8.69A1.22,1.22,0,0,0,234.65,296.68Z"></path><path class="cls-58" d="M239,293v3.19a3,3,0,0,0-1-.24,1.64,1.64,0,0,0-.88.21c-.28.15-.41.33-.41.54v-3.19a.66.66,0,0,1,.4-.55,1.6,1.6,0,0,1,.89-.2A3,3,0,0,1,239,293Z"></path><polygon class="cls-57" points="239 293.01 238.99 296.2 236.88 297.4 236.88 294.21 239 293.01"></polygon><path class="cls-57" d="M236.66,296.71c0-.94,0-1.88,0-2.82v-.37a1.38,1.38,0,0,0,.22.69v3.19A1.35,1.35,0,0,1,236.66,296.71Z"></path><path class="cls-58" d="M240.46,294.34v3.2a.84.84,0,0,0-.24-.56v-3.2A.88.88,0,0,1,240.46,294.34Z"></path><path class="cls-57" d="M242.33,294.45v3.19a1.53,1.53,0,0,0-.15-.64,2.45,2.45,0,0,0-.64-.77V293a2.34,2.34,0,0,1,.64.77A1.53,1.53,0,0,1,242.33,294.45Z"></path><path class="cls-58" d="M234.65,296.68v-3.12a1.69,1.69,0,0,0,.24.75q.22.38.48.75v3.19q-.26-.37-.48-.75a1.69,1.69,0,0,1-.24-.75Z"></path><polygon class="cls-57" points="232.59 295.06 232.58 298.25 231.06 297.6 231.07 294.4 232.59 295.06"></polygon><polygon class="cls-58" points="240.22 293.78 240.21 296.98 237.63 298.44 237.64 295.25 240.22 293.78"></polygon><path class="cls-57" d="M240.46,294.34v3.2a1.21,1.21,0,0,1-.6.89v-3.19C240.26,294.93,240.46,294.64,240.46,294.34Z"></path><path class="cls-57" d="M230.05,299.14V295.9a2,2,0,0,1,1-1.5v3.2a2,2,0,0,0-1,1.5Z"></path><path class="cls-57" d="M238.12,299.22a9.21,9.21,0,0,0-.49-.78v-3.19a7.85,7.85,0,0,1,.49.78Z"></path><path class="cls-58" d="M232,299.23V296a1.35,1.35,0,0,1,.6-1v3.19A1.37,1.37,0,0,0,232,299.23Z"></path><path class="cls-57" d="M232,299.23V296a1,1,0,0,0,.37.73V300A1,1,0,0,1,232,299.23Z"></path><polygon class="cls-57" points="235.38 295.06 235.38 298.25 232.35 299.97 232.36 296.77 235.38 295.06"></polygon><path class="cls-57" d="M238.37,300a1.74,1.74,0,0,0-.25-.79V296a1.74,1.74,0,0,1,.25.79Z"></path><path class="cls-58" d="M236.39,296.9v3.19h0a1.8,1.8,0,0,0-.25-.79V296.1a1.64,1.64,0,0,1,.26.78Z"></path><path class="cls-58" d="M230.05,299.14V296a2.06,2.06,0,0,0,1,1.56v3.19A2.06,2.06,0,0,1,230.05,299.14Z"></path><polygon class="cls-58" points="236.13 296.1 236.13 299.29 233.62 300.71 233.63 297.52 236.13 296.1"></polygon><path class="cls-57" d="M236.38,300.09c0,.23-.16.44-.49.63,0-1.07,0-2.13,0-3.2.33-.18.49-.39.49-.62Z"></path><path class="cls-57" d="M234.81,301a3.35,3.35,0,0,1-1.19-.27v-3.19a3.3,3.3,0,0,0,1.19.27C234.82,298.85,234.82,299.92,234.81,301Z"></path><path class="cls-57" d="M235.89,300.72a2.11,2.11,0,0,1-1.08.26c0-1.06,0-2.13,0-3.19a2,2,0,0,0,1.08-.27C235.9,298.59,235.9,299.65,235.89,300.72Z"></path><path class="cls-57" d="M243.45,291a16,16,0,0,0-14.52,0c-4,2.32-4,6.09,0,8.41a16,16,0,0,0,14.52,0C247.49,297.09,247.47,293.32,243.45,291Z"></path><path class="cls-59" d="M228.93,291.66a16,16,0,0,1,14.52,0c1.87,1.08,2.87,2.48,3,3.9.16-1.64-.84-3.31-3-4.56a16,16,0,0,0-14.52,0c-2.13,1.24-3.11,2.89-3,4.51A5.3,5.3,0,0,1,228.93,291.66Z"></path><polygon class="cls-57" points="231.06 297.51 231.05 300.7 229.88 301.37 229.88 298.17 231.06 297.51"></polygon><path class="cls-58" d="M238.18,297.61a2.38,2.38,0,0,1-.87.75,3.56,3.56,0,0,1-1,.38,5.4,5.4,0,0,1-1.23.13,6.18,6.18,0,0,1-1.34-.15,7.88,7.88,0,0,1-1.37-.46l-1.18.66-1.27-.75,1.18-.66a2,2,0,0,1-1-1.61,2,2,0,0,1,1-1.5l1.52.66c-.72.6-.79,1.17-.23,1.71l3-1.71q-.25-.37-.48-.75a1.69,1.69,0,0,1-.24-.75,1.23,1.23,0,0,1,.19-.73,2.25,2.25,0,0,1,.8-.68,4.07,4.07,0,0,1,2.13-.48,6.19,6.19,0,0,1,2.52.6l1.18-.66,1.26.75-1.2.68a2.34,2.34,0,0,1,.64.77,1.54,1.54,0,0,1,.15.77,1.51,1.51,0,0,1-.3.72,2.7,2.7,0,0,1-.7.63l-1.48-.69c.66-.5.78-1,.37-1.46l-2.58,1.47a7.85,7.85,0,0,1,.49.78,1.74,1.74,0,0,1,.25.79A1.37,1.37,0,0,1,238.18,297.61Zm-3.36.18a2,2,0,0,0,1.08-.27c.33-.18.5-.4.49-.64a1.64,1.64,0,0,0-.26-.78l-2.5,1.42a3.3,3.3,0,0,0,1.19.27m2.07-3.58L239,293a3,3,0,0,0-1-.24,1.6,1.6,0,0,0-.89.2.66.66,0,0,0-.4.55,1.38,1.38,0,0,0,.22.69"></path><path class="cls-57" d="M238.37,300.09v0Z"></path><path class="cls-57" d="M236.13,296.1a1.64,1.64,0,0,1,.26.78c0,.24-.16.46-.49.64a2,2,0,0,1-1.08.27,3.3,3.3,0,0,1-1.19-.27Z"></path><path class="cls-60" d="M249.41,295.24v3.2c0,1.94-1.28,3.88-3.83,5.36-5.14,3-13.5,3-18.67,0-2.6-1.5-3.9-3.47-3.9-5.44v-3.19c0,2,1.3,3.94,3.9,5.44,5.17,3,13.53,3,18.67,0C248.13,299.13,249.41,297.19,249.41,295.24Z"></path><path class="cls-58" d="M245.51,289.8c5.18,3,5.2,7.83.07,10.81s-13.5,3-18.67,0-5.2-7.82-.06-10.81S240.34,286.81,245.51,289.8ZM229,299.41a16,16,0,0,0,14.52,0c4-2.32,4-6.09-.05-8.41a16,16,0,0,0-14.52,0c-4,2.32-4,6.09,0,8.41"></path><path class="cls-57" d="M237.07,293a1.6,1.6,0,0,1,.89-.2,3,3,0,0,1,1,.24l-2.11,1.2a1.38,1.38,0,0,1-.22-.69A.66.66,0,0,1,237.07,293Z"></path></g><g class="cls-3"><polygon class="cls-57" points="243.21 287.57 243.2 290.76 242.02 291.43 242.03 288.23 243.21 287.57"></polygon><polygon class="cls-57" points="244.47 288.32 244.46 291.51 243.2 290.76 243.21 287.57 244.47 288.32"></polygon><polygon class="cls-58" points="244.47 288.32 244.46 291.51 243.26 292.19 243.27 289 244.47 288.32"></polygon><path class="cls-57" d="M236.38,292.64v-3.19a1.22,1.22,0,0,1,.19-.65,2.17,2.17,0,0,1,.8-.69,4.17,4.17,0,0,1,2.13-.48,6.19,6.19,0,0,1,2.52.6v3.2a6.37,6.37,0,0,0-2.52-.61,4.17,4.17,0,0,0-2.13.48,2.17,2.17,0,0,0-.8.69A1.22,1.22,0,0,0,236.38,292.64Z"></path><path class="cls-58" d="M240.73,289v3.19a3.47,3.47,0,0,0-1-.24,1.65,1.65,0,0,0-.89.21c-.28.15-.41.33-.41.54v-3.19c0-.21.13-.39.41-.54a1.57,1.57,0,0,1,.89-.21A3,3,0,0,1,240.73,289Z"></path><polygon class="cls-57" points="240.73 288.97 240.72 292.16 238.61 293.36 238.62 290.17 240.73 288.97"></polygon><path class="cls-57" d="M238.39,292.67c0-.94,0-1.88,0-2.82v-.37a1.35,1.35,0,0,0,.22.69v3.19A1.35,1.35,0,0,1,238.39,292.67Z"></path><path class="cls-58" d="M242.19,290.3v3.2a.84.84,0,0,0-.24-.56v-3.19A.84.84,0,0,1,242.19,290.3Z"></path><path class="cls-57" d="M244.06,290.41v3.2a1.59,1.59,0,0,0-.16-.65,2.45,2.45,0,0,0-.64-.77V289a2.45,2.45,0,0,1,.64.77A1.53,1.53,0,0,1,244.06,290.41Z"></path><path class="cls-58" d="M236.38,292.64v-3.12a1.69,1.69,0,0,0,.24.75c.15.25.31.5.49.75v3.19c-.18-.25-.34-.5-.48-.74a1.59,1.59,0,0,1-.25-.75Z"></path><polygon class="cls-57" points="234.32 291.02 234.31 294.21 232.8 293.56 232.81 290.37 234.32 291.02"></polygon><polygon class="cls-58" points="241.95 289.75 241.94 292.94 239.36 294.41 239.37 291.21 241.95 289.75"></polygon><path class="cls-57" d="M242.19,290.3v3.2a1.21,1.21,0,0,1-.6.89V291.2A1.21,1.21,0,0,0,242.19,290.3Z"></path><path class="cls-57" d="M231.78,295.1v-3.24a2,2,0,0,1,1-1.5v3.2a2,2,0,0,0-1,1.5Z"></path><path class="cls-57" d="M239.85,295.18a7.11,7.11,0,0,0-.49-.77v-3.2a6.36,6.36,0,0,1,.49.78Z"></path><path class="cls-58" d="M233.71,295.19V292a1.35,1.35,0,0,1,.6-1v3.19A1.37,1.37,0,0,0,233.71,295.19Z"></path><path class="cls-57" d="M233.71,295.19V292a1,1,0,0,0,.37.74v3.19A1,1,0,0,1,233.71,295.19Z"></path><polygon class="cls-57" points="237.12 291.02 237.11 294.21 234.08 295.93 234.09 292.74 237.12 291.02"></polygon><path class="cls-57" d="M240.1,296a1.66,1.66,0,0,0-.25-.8V292a1.74,1.74,0,0,1,.25.79Z"></path><path class="cls-58" d="M238.12,292.86v3.19h0a1.68,1.68,0,0,0-.25-.79v-3.19a1.8,1.8,0,0,1,.25.79Z"></path><path class="cls-58" d="M231.78,295.1v-3.19a2.05,2.05,0,0,0,1,1.56v3.19A2.08,2.08,0,0,1,231.78,295.1Z"></path><polygon class="cls-58" points="237.87 292.06 237.86 295.25 235.35 296.68 235.36 293.48 237.87 292.06"></polygon><path class="cls-57" d="M238.11,296.05q0,.34-.48.63v-3.19c.33-.19.49-.4.49-.63C238.12,293.82,238.12,295.09,238.11,296.05Z"></path><path class="cls-57" d="M236.54,296.94a3.55,3.55,0,0,1-1.19-.26v-3.2a3.35,3.35,0,0,0,1.19.27C236.55,294.81,236.55,295.88,236.54,296.94Z"></path><path class="cls-57" d="M237.63,296.68a2,2,0,0,1-1.09.26c0-1.06,0-2.13,0-3.19a2.17,2.17,0,0,0,1.09-.26C237.63,294.55,237.63,295.61,237.63,296.68Z"></path><path class="cls-57" d="M245.18,287a16,16,0,0,0-14.52,0c-4,2.33-4,6.09.05,8.41a16,16,0,0,0,14.52,0C249.22,293.05,249.2,289.29,245.18,287Z"></path><path class="cls-59" d="M230.66,287.62a16,16,0,0,1,14.52,0c1.87,1.09,2.87,2.48,3,3.9.16-1.63-.84-3.31-3-4.56a16,16,0,0,0-14.52,0c-2.13,1.24-3.11,2.89-2.95,4.51C227.84,290.07,228.82,288.69,230.66,287.62Z"></path><polygon class="cls-57" points="232.79 293.47 232.79 296.67 231.61 297.33 231.62 294.14 232.79 293.47"></polygon><path class="cls-58" d="M239.91,293.57a2.22,2.22,0,0,1-.87.75,3.8,3.8,0,0,1-1,.39,6.25,6.25,0,0,1-2.58,0,7.12,7.12,0,0,1-1.37-.46l-1.18.66-1.26-.74,1.18-.67a1.7,1.7,0,0,1,0-3.11l1.51.66c-.72.6-.79,1.17-.23,1.72l3-1.72c-.18-.25-.34-.5-.49-.75a1.69,1.69,0,0,1-.24-.75,1.28,1.28,0,0,1,.19-.72,2.17,2.17,0,0,1,.8-.69,4.17,4.17,0,0,1,2.13-.48,6.19,6.19,0,0,1,2.52.6l1.18-.66,1.26.75-1.2.68a2.45,2.45,0,0,1,.64.77,1.54,1.54,0,0,1,.15.77,1.51,1.51,0,0,1-.3.72,2.27,2.27,0,0,1-.7.63l-1.47-.69c.65-.49.77-1,.36-1.45l-2.58,1.46a6.36,6.36,0,0,1,.49.78,1.74,1.74,0,0,1,.25.79A1.35,1.35,0,0,1,239.91,293.57Zm-3.36.18a2.17,2.17,0,0,0,1.09-.26c.33-.19.49-.41.48-.64a1.8,1.8,0,0,0-.25-.79l-2.51,1.42a3.35,3.35,0,0,0,1.19.27m2.07-3.58,2.11-1.2a3,3,0,0,0-1-.24,1.57,1.57,0,0,0-.89.21c-.28.15-.41.33-.41.54a1.35,1.35,0,0,0,.22.69"></path><path class="cls-57" d="M240.11,296.05a.17.17,0,0,0,0-.07v-3.2s0,.05,0,.08Z"></path><path class="cls-57" d="M237.87,292.06a1.8,1.8,0,0,1,.25.79c0,.23-.15.45-.48.64a2.17,2.17,0,0,1-1.09.26,3.35,3.35,0,0,1-1.19-.27Z"></path><path class="cls-60" d="M251.14,291.2v3.2c0,1.94-1.28,3.88-3.83,5.37-5.14,3-13.5,3-18.67,0-2.6-1.5-3.9-3.48-3.9-5.44v-3.2c0,2,1.3,3.94,3.9,5.44,5.17,3,13.53,3,18.67,0C249.86,295.09,251.14,293.15,251.14,291.2Z"></path><path class="cls-58" d="M247.25,285.76c5.17,3,5.19,7.83.06,10.81s-13.5,3-18.67,0-5.2-7.82-.06-10.81S242.08,282.78,247.25,285.76Zm-16.54,9.61a16,16,0,0,0,14.52,0c4-2.32,4-6.08,0-8.41a16,16,0,0,0-14.52,0c-4,2.33-4,6.09.05,8.41"></path><path class="cls-57" d="M238.81,288.94a1.57,1.57,0,0,1,.89-.21,3,3,0,0,1,1,.24l-2.11,1.2a1.35,1.35,0,0,1-.22-.69C238.4,289.27,238.53,289.09,238.81,288.94Z"></path></g><g class="cls-3"><polygon class="cls-57" points="244.94 283.53 244.93 286.73 243.75 287.39 243.76 284.2 244.94 283.53"></polygon><polygon class="cls-57" points="246.2 284.28 246.19 287.47 244.93 286.73 244.94 283.53 246.2 284.28"></polygon><polygon class="cls-58" points="246.2 284.28 246.19 287.47 244.99 288.15 245 284.96 246.2 284.28"></polygon><path class="cls-57" d="M238.11,288.6v-3.19a1.22,1.22,0,0,1,.19-.65,2.21,2.21,0,0,1,.81-.69,4.13,4.13,0,0,1,2.12-.48,6.21,6.21,0,0,1,2.52.61v3.19a6.19,6.19,0,0,0-2.52-.6,3.94,3.94,0,0,0-2.12.48,2,2,0,0,0-.8.68A1.23,1.23,0,0,0,238.11,288.6Z"></path><path class="cls-58" d="M242.46,284.93v3.2a3.34,3.34,0,0,0-1-.25,1.65,1.65,0,0,0-.89.21c-.27.16-.41.34-.41.54v-3.19c0-.21.13-.39.41-.54a1.65,1.65,0,0,1,.89-.21A3.47,3.47,0,0,1,242.46,284.93Z"></path><polygon class="cls-57" points="242.46 284.93 242.46 288.13 240.34 289.33 240.35 286.13 242.46 284.93"></polygon><path class="cls-57" d="M240.12,288.63c0-.94,0-1.88,0-2.82v-.37a1.35,1.35,0,0,0,.22.69v3.2A1.41,1.41,0,0,1,240.12,288.63Z"></path><path class="cls-58" d="M243.92,286.27v3.19a.86.86,0,0,0-.24-.56v-3.19A.84.84,0,0,1,243.92,286.27Z"></path><path class="cls-57" d="M245.8,286.37v3.2a1.51,1.51,0,0,0-.16-.64,2.48,2.48,0,0,0-.64-.78V285a2.45,2.45,0,0,1,.64.77A1.55,1.55,0,0,1,245.8,286.37Z"></path><path class="cls-58" d="M238.11,288.6v-3.11a1.56,1.56,0,0,0,.25.74,7.85,7.85,0,0,0,.48.75v3.19a8.48,8.48,0,0,1-.48-.74,1.71,1.71,0,0,1-.25-.75Z"></path><polygon class="cls-57" points="236.05 286.98 236.04 290.18 234.53 289.52 234.54 286.33 236.05 286.98"></polygon><polygon class="cls-58" points="243.68 285.71 243.67 288.9 241.09 290.37 241.1 287.18 243.68 285.71"></polygon><path class="cls-57" d="M243.92,286.27v3.19a1.21,1.21,0,0,1-.6.89v-3.19A1.21,1.21,0,0,0,243.92,286.27Z"></path><path class="cls-57" d="M233.51,291.07v-3.24a2,2,0,0,1,1-1.5v3.19a2,2,0,0,0-1,1.5Z"></path><path class="cls-57" d="M241.59,291.14c-.15-.26-.32-.52-.5-.77v-3.19a6.25,6.25,0,0,1,.49.77Z"></path><path class="cls-58" d="M235.44,291.15V288a1.37,1.37,0,0,1,.6-1v3.2A1.35,1.35,0,0,0,235.44,291.15Z"></path><path class="cls-57" d="M235.44,291.15V288a1,1,0,0,0,.37.74v3.19A1.06,1.06,0,0,1,235.44,291.15Z"></path><polygon class="cls-57" points="238.85 286.98 238.84 290.17 235.81 291.89 235.82 288.7 238.85 286.98"></polygon><path class="cls-57" d="M241.84,291.94a1.91,1.91,0,0,0-.25-.8V288a1.62,1.62,0,0,1,.25.79Z"></path><path class="cls-58" d="M239.85,288.82V292h0a1.75,1.75,0,0,0-.26-.78V288a1.68,1.68,0,0,1,.25.79Z"></path><path class="cls-58" d="M233.51,291.07v-3.2a2.08,2.08,0,0,0,1,1.56v3.2A2.08,2.08,0,0,1,233.51,291.07Z"></path><polygon class="cls-58" points="239.6 288.02 239.59 291.22 237.08 292.64 237.09 289.45 239.6 288.02"></polygon><path class="cls-57" d="M239.85,292a.8.8,0,0,1-.49.63v-3.19q.48-.29.48-.63Z"></path><path class="cls-57" d="M238.28,292.91a3.35,3.35,0,0,1-1.2-.27v-3.19a3.55,3.55,0,0,0,1.2.26C238.28,290.78,238.28,291.84,238.28,292.91Z"></path><path class="cls-57" d="M239.36,292.64a2,2,0,0,1-1.08.27c0-1.07,0-2.13,0-3.2a2,2,0,0,0,1.08-.26Z"></path><path class="cls-57" d="M246.91,282.93a16,16,0,0,0-14.52,0c-4,2.32-4,6.08.05,8.4a16,16,0,0,0,14.52,0C251,289,250.93,285.25,246.91,282.93Z"></path><path class="cls-59" d="M232.39,283.59a16,16,0,0,1,14.52,0c1.87,1.08,2.87,2.48,3,3.9.16-1.64-.83-3.31-3-4.56a16,16,0,0,0-14.52,0c-2.13,1.24-3.11,2.88-2.95,4.51C229.57,286,230.55,284.66,232.39,283.59Z"></path><polygon class="cls-57" points="234.53 289.43 234.52 292.63 233.34 293.29 233.35 290.1 234.53 289.43"></polygon><path class="cls-58" d="M241.64,289.53a2.22,2.22,0,0,1-.87.75,3.8,3.8,0,0,1-1,.39,6.12,6.12,0,0,1-1.24.13,6.21,6.21,0,0,1-1.34-.16,7.36,7.36,0,0,1-1.37-.46l-1.17.67-1.27-.75,1.18-.67a2,2,0,0,1-1-1.6,2,2,0,0,1,1-1.5l1.51.65c-.71.6-.79,1.17-.23,1.72l3-1.72a7.85,7.85,0,0,1-.48-.75,1.56,1.56,0,0,1-.25-.74,1.29,1.29,0,0,1,.19-.73,2.21,2.21,0,0,1,.81-.69,4.13,4.13,0,0,1,2.12-.48,6.21,6.21,0,0,1,2.52.61l1.18-.67,1.26.75L245,285a2.45,2.45,0,0,1,.64.77,1.45,1.45,0,0,1,.15.77,1.58,1.58,0,0,1-.3.73,2.55,2.55,0,0,1-.7.63l-1.47-.7c.65-.49.77-1,.36-1.45l-2.58,1.47a6.25,6.25,0,0,1,.49.77,1.62,1.62,0,0,1,.25.79A1.35,1.35,0,0,1,241.64,289.53Zm-3.35.18a2,2,0,0,0,1.08-.26c.33-.19.49-.4.48-.64a1.68,1.68,0,0,0-.25-.79l-2.51,1.43a3.55,3.55,0,0,0,1.2.26m2.06-3.58,2.11-1.2a3.47,3.47,0,0,0-1-.24,1.65,1.65,0,0,0-.89.21c-.28.15-.41.33-.41.54a1.35,1.35,0,0,0,.22.69"></path><path class="cls-57" d="M241.84,292v-3.27a.25.25,0,0,1,0,.08Z"></path><path class="cls-57" d="M239.6,288a1.68,1.68,0,0,1,.25.79c0,.24-.15.45-.48.64a2,2,0,0,1-1.08.26,3.55,3.55,0,0,1-1.2-.26Z"></path><path class="cls-60" d="M252.87,287.17v3.19c0,1.94-1.29,3.89-3.84,5.37-5.14,3-13.5,3-18.67,0-2.6-1.5-3.9-3.47-3.89-5.44v-3.2c0,2,1.29,3.94,3.89,5.45,5.17,3,13.53,3,18.67,0C251.59,291.05,252.87,289.11,252.87,287.17Z"></path><path class="cls-58" d="M249,281.72c5.17,3,5.2,7.83.06,10.82s-13.5,3-18.67,0-5.2-7.83-.06-10.81S243.81,278.74,249,281.72Zm-16.54,9.61a16,16,0,0,0,14.52,0c4-2.32,4-6.09-.05-8.41a16,16,0,0,0-14.52,0c-4,2.32-4,6.08.05,8.4"></path><path class="cls-57" d="M240.54,284.9a1.65,1.65,0,0,1,.89-.21,3.47,3.47,0,0,1,1,.24l-2.11,1.2a1.35,1.35,0,0,1-.22-.69C240.13,285.23,240.26,285.05,240.54,284.9Z"></path></g><g class="cls-3"><polygon class="cls-57" points="242.89 279.59 242.88 282.78 241.71 283.44 241.72 280.25 242.89 279.59"></polygon><polygon class="cls-57" points="244.16 280.34 244.15 283.53 242.88 282.78 242.89 279.59 244.16 280.34"></polygon><polygon class="cls-58" points="244.16 280.34 244.15 283.53 242.95 284.21 242.96 281.02 244.16 280.34"></polygon><path class="cls-57" d="M236.07,284.66v-3.2a1.25,1.25,0,0,1,.19-.65,2.16,2.16,0,0,1,.8-.68,4.06,4.06,0,0,1,2.12-.48,6.2,6.2,0,0,1,2.53.6v3.19a6.36,6.36,0,0,0-2.52-.6,4.17,4.17,0,0,0-2.13.48,2.17,2.17,0,0,0-.8.69A1.22,1.22,0,0,0,236.07,284.66Z"></path><path class="cls-58" d="M240.42,281v3.19a3,3,0,0,0-1-.24,1.7,1.7,0,0,0-.89.21.64.64,0,0,0-.4.54V281.5a.66.66,0,0,1,.4-.55,1.58,1.58,0,0,1,.89-.2A3,3,0,0,1,240.42,281Z"></path><polygon class="cls-57" points="240.42 280.99 240.41 284.18 238.29 285.38 238.3 282.19 240.42 280.99"></polygon><path class="cls-57" d="M238.08,284.69c0-.94,0-1.88,0-2.82v-.37a1.43,1.43,0,0,0,.21.69v3.19A1.35,1.35,0,0,1,238.08,284.69Z"></path><path class="cls-58" d="M241.88,282.32v3.2a.84.84,0,0,0-.24-.56v-3.2A.88.88,0,0,1,241.88,282.32Z"></path><path class="cls-57" d="M243.75,282.43v3.19a1.53,1.53,0,0,0-.15-.64,2.45,2.45,0,0,0-.64-.77V281a2.3,2.3,0,0,1,.63.77A1.41,1.41,0,0,1,243.75,282.43Z"></path><path class="cls-58" d="M236.07,284.66v-3.12a1.57,1.57,0,0,0,.24.75q.23.38.48.75v3.19q-.25-.37-.48-.75a1.57,1.57,0,0,1-.24-.75Z"></path><polygon class="cls-57" points="234.01 283.04 234 286.23 232.48 285.58 232.49 282.38 234.01 283.04"></polygon><polygon class="cls-58" points="241.63 281.76 241.63 284.96 239.04 286.42 239.05 283.23 241.63 281.76"></polygon><path class="cls-57" d="M241.88,282.32v3.2a1.23,1.23,0,0,1-.61.89v-3.19A1.27,1.27,0,0,0,241.88,282.32Z"></path><path class="cls-57" d="M231.47,287.12v-3.24a2,2,0,0,1,1-1.5v3.2a2,2,0,0,0-1,1.5Z"></path><path class="cls-57" d="M239.54,287.2c-.15-.27-.32-.52-.49-.78v-3.19a7.94,7.94,0,0,1,.5.78Z"></path><path class="cls-58" d="M233.4,287.21V284a1.35,1.35,0,0,1,.6-1v3.19A1.37,1.37,0,0,0,233.4,287.21Z"></path><path class="cls-57" d="M233.4,287.21V284a1,1,0,0,0,.37.73V288A1,1,0,0,1,233.4,287.21Z"></path><polygon class="cls-57" points="236.8 283.04 236.79 286.23 233.77 287.95 233.78 284.75 236.8 283.04"></polygon><path class="cls-57" d="M239.79,288a1.74,1.74,0,0,0-.25-.79V284a1.87,1.87,0,0,1,.25.79Z"></path><path class="cls-58" d="M237.81,284.88v3.19h0a1.7,1.7,0,0,0-.26-.79v-3.19a1.64,1.64,0,0,1,.26.78Z"></path><path class="cls-58" d="M231.47,287.12v-3.19a2.06,2.06,0,0,0,1,1.56v3.19A2.06,2.06,0,0,1,231.47,287.12Z"></path><polygon class="cls-58" points="237.55 284.08 237.54 287.27 235.04 288.69 235.05 285.5 237.55 284.08"></polygon><path class="cls-57" d="M237.8,288.07c0,.23-.16.44-.49.63,0-1.07,0-2.13,0-3.2.33-.18.49-.39.49-.62Z"></path><path class="cls-57" d="M236.23,289a3.3,3.3,0,0,1-1.19-.27V285.5a3.3,3.3,0,0,0,1.19.27C236.24,286.83,236.23,287.9,236.23,289Z"></path><path class="cls-57" d="M237.31,288.7a2.11,2.11,0,0,1-1.08.26c0-1.06,0-2.13,0-3.19a2,2,0,0,0,1.08-.27C237.32,286.57,237.32,287.63,237.31,288.7Z"></path><path class="cls-57" d="M244.86,279a16,16,0,0,0-14.51,0c-4,2.32-4,6.09.05,8.41a16,16,0,0,0,14.51,0C248.91,285.07,248.89,281.3,244.86,279Z"></path><path class="cls-59" d="M230.35,279.64a16,16,0,0,1,14.51,0c1.88,1.08,2.87,2.48,3,3.9.16-1.64-.84-3.31-3-4.56a16,16,0,0,0-14.51,0c-2.13,1.24-3.11,2.89-3,4.51A5.28,5.28,0,0,1,230.35,279.64Z"></path><polygon class="cls-57" points="232.48 285.49 232.47 288.68 231.29 289.35 231.3 286.15 232.48 285.49"></polygon><path class="cls-58" d="M239.59,285.59a2.26,2.26,0,0,1-.86.75,3.67,3.67,0,0,1-1,.38,5.46,5.46,0,0,1-1.23.13,6.34,6.34,0,0,1-1.35-.15,7,7,0,0,1-1.36-.46l-1.18.66-1.27-.75,1.18-.66a2,2,0,0,1-1-1.61,2,2,0,0,1,1-1.5L234,283c-.72.6-.79,1.17-.23,1.71l3-1.71q-.26-.37-.48-.75a1.57,1.57,0,0,1-.24-.75,1.23,1.23,0,0,1,.19-.73,2.16,2.16,0,0,1,.8-.68,4.06,4.06,0,0,1,2.12-.48,6.2,6.2,0,0,1,2.53.6l1.17-.66,1.27.75L243,281a2.3,2.3,0,0,1,.63.77,1.35,1.35,0,0,1,.15.77,1.4,1.4,0,0,1-.29.72,2.7,2.7,0,0,1-.7.63l-1.48-.69c.66-.5.78-1,.37-1.46l-2.59,1.47a7.94,7.94,0,0,1,.5.78,1.87,1.87,0,0,1,.25.79A1.31,1.31,0,0,1,239.59,285.59Zm-3.35.18a2,2,0,0,0,1.08-.27c.33-.18.49-.4.49-.64a1.64,1.64,0,0,0-.26-.78l-2.5,1.42a3.3,3.3,0,0,0,1.19.27m2.06-3.58,2.12-1.2a3,3,0,0,0-1-.24,1.58,1.58,0,0,0-.89.2.66.66,0,0,0-.4.55,1.43,1.43,0,0,0,.21.69"></path><path class="cls-57" d="M239.79,288.07v0Z"></path><path class="cls-57" d="M237.55,284.08a1.64,1.64,0,0,1,.26.78c0,.24-.16.46-.49.64a2,2,0,0,1-1.08.27,3.3,3.3,0,0,1-1.19-.27Z"></path><path class="cls-60" d="M250.83,283.22v3.2c0,1.94-1.28,3.88-3.83,5.37-5.14,3-13.5,3-18.67,0-2.6-1.51-3.9-3.48-3.9-5.45v-3.19c0,2,1.29,3.94,3.9,5.44,5.17,3,13.52,3,18.66,0C249.55,287.11,250.82,285.17,250.83,283.22Z"></path><path class="cls-58" d="M246.93,277.78c5.18,3,5.2,7.83.06,10.81s-13.49,3-18.66,0-5.2-7.82-.06-10.81S241.76,274.79,246.93,277.78Zm-16.53,9.61a16,16,0,0,0,14.51,0c4-2.32,4-6.09,0-8.41a16,16,0,0,0-14.51,0c-4,2.32-4,6.09.05,8.41"></path><path class="cls-57" d="M238.49,281a1.58,1.58,0,0,1,.89-.2,3,3,0,0,1,1,.24l-2.12,1.2a1.43,1.43,0,0,1-.21-.69A.66.66,0,0,1,238.49,281Z"></path></g></g></g></svg> 